<?xml version="1.0" encoding="UTF-8" standalone="no"?>
<svg
   xmlns:dc="http://purl.org/dc/elements/1.1/"
   xmlns:cc="http://creativecommons.org/ns#"
   xmlns:rdf="http://www.w3.org/1999/02/22-rdf-syntax-ns#"
   xmlns:svg="http://www.w3.org/2000/svg"
   xmlns="http://www.w3.org/2000/svg"
   xmlns:sodipodi="http://sodipodi.sourceforge.net/DTD/sodipodi-0.dtd"
   xmlns:inkscape="http://www.inkscape.org/namespaces/inkscape"
   id="svg1792"
   version="1.1"
   viewBox="0 0 24 24"
   height="24"
   width="24"
   sodipodi:docname="i_atmosphaere.svg"
   inkscape:version="0.92.3 (2405546, 2018-03-11)">
  <sodipodi:namedview
     pagecolor="#ffffff"
     bordercolor="#666666"
     borderopacity="1"
     objecttolerance="10"
     gridtolerance="10"
     guidetolerance="10"
     inkscape:pageopacity="0"
     inkscape:pageshadow="2"
     inkscape:window-width="1920"
     inkscape:window-height="1052"
     id="namedview8"
     showgrid="false"
     inkscape:zoom="9.8333333"
     inkscape:cx="12"
     inkscape:cy="12"
     inkscape:window-x="0"
     inkscape:window-y="0"
     inkscape:window-maximized="1"
     inkscape:current-layer="svg1792" />
  <defs
     id="defs1786" />
  <metadata
     id="metadata1789">
    <rdf:RDF>
      <cc:Work
         rdf:about="">
        <dc:format>image/svg+xml</dc:format>
        <dc:type
           rdf:resource="http://purl.org/dc/dcmitype/StillImage" />
        <dc:title />
      </cc:Work>
    </rdf:RDF>
  </metadata>
  <g
     transform="matrix(0.90198817,0,0,0.90198817,161.78885,-11.959123)"
     id="layer1">
    <path
       id="path1650"
       d="m -165.13805,18.35388 c 0.70476,0.628791 1.83994,1.791752 2.72542,3.427697 h 3.04632 a 8.2197123,8.2197123 0 0 0 -5.77174,-3.427697 z m -1.95078,0.01447 a 8.2197123,8.2197123 0 0 0 -5.6994,3.413228 h 2.99 c 0.87799,-1.621445 2.00294,-2.780509 2.7094,-3.413228 z m 0.51573,0.975134 c -0.55667,0.523509 -1.31756,1.348162 -1.98748,2.438094 h 1.98748 z m 0.99994,0.06046 v 2.377633 h 1.92339 c -0.64455,-1.049146 -1.37299,-1.851963 -1.92339,-2.377633 z m -7.81451,3.377571 a 8.2197123,8.2197123 0 0 0 -0.88109,3.232361 h 3.21686 c 0.0834,-1.195766 0.3749,-2.276691 0.77618,-3.232361 z m 4.28035,0 c -0.44534,0.938138 -0.78182,2.021162 -0.87746,3.232361 h 3.41168 v -3.232361 z m 3.53416,0 v 3.232361 h 3.34656 c -0.0956,-1.21119 -0.43181,-2.294229 -0.87695,-3.232361 z m 3.63802,0 c 0.40111,0.955677 0.69277,2.036584 0.77618,3.232361 h 3.28714 a 8.2197123,8.2197123 0 0 0 -0.87954,-3.232361 z m -12.34085,4.232817 a 8.2197123,8.2197123 0 0 0 0.87901,3.233911 h 2.96572 c -0.35993,-0.962186 -0.60382,-2.043314 -0.64027,-3.233911 z m 4.26899,0 c 0.0416,1.204691 0.3227,2.287184 0.72243,3.233911 h 2.71147 v -3.233911 z m 4.43384,0 v 3.233911 h 2.64635 c 0.39973,-0.946727 0.68087,-2.02922 0.72243,-3.233911 z m 4.43332,0 c -0.0364,1.190594 -0.27999,2.271727 -0.63976,3.233911 h 3.01946 a 8.2197123,8.2197123 0 0 0 0.88108,-3.233911 z m -11.64167,4.234367 a 8.2197123,8.2197123 0 0 0 5.21622,3.343465 c -0.74048,-0.731709 -1.70131,-1.853033 -2.43551,-3.343465 z m 3.98529,0 c 0.72164,1.293976 1.6076,2.24991 2.22312,2.824634 V 31.2487 Z m 3.22306,0 v 2.763139 c 0.61217,-0.580464 1.46089,-1.51314 2.15801,-2.763139 z m 3.36362,0 c -0.74096,1.504783 -1.71222,2.632707 -2.45515,3.363619 a 8.2197123,8.2197123 0 0 0 5.30458,-3.363619 z"
       style="opacity:1;fill:#000000;fill-opacity:1;stroke:none;stroke-width:0.98414057;stroke-linecap:round;stroke-linejoin:round;stroke-miterlimit:4;stroke-dasharray:none;stroke-dashoffset:0;stroke-opacity:1;paint-order:normal"
       inkscape:connector-curvature="0" />
    <path
       id="circle1661"
       d="m -166.07422,13.544922 c -7.15718,0 -12.96875,5.81352 -12.96875,12.970703 0,7.157183 5.81157,12.96875 12.96875,12.96875 7.15718,0 12.9707,-5.811567 12.9707,-12.96875 0,-7.157183 -5.81352,-12.970703 -12.9707,-12.970703 z m 0,1 c 6.61674,0 11.9707,5.35396 11.9707,11.970703 0,6.616743 -5.35396,11.96875 -11.9707,11.96875 -6.61674,0 -11.96875,-5.352007 -11.96875,-11.96875 0,-6.616743 5.35201,-11.970703 11.96875,-11.970703 z"
       style="color:#000000;font-style:normal;font-variant:normal;font-weight:normal;font-stretch:normal;font-size:medium;line-height:normal;font-family:sans-serif;font-variant-ligatures:normal;font-variant-position:normal;font-variant-caps:normal;font-variant-numeric:normal;font-variant-alternates:normal;font-feature-settings:normal;text-indent:0;text-align:start;text-decoration:none;text-decoration-line:none;text-decoration-style:solid;text-decoration-color:#000000;letter-spacing:normal;word-spacing:normal;text-transform:none;writing-mode:lr-tb;direction:ltr;text-orientation:mixed;dominant-baseline:auto;baseline-shift:baseline;text-anchor:start;white-space:normal;shape-padding:0;clip-rule:nonzero;display:inline;overflow:visible;visibility:visible;opacity:1;isolation:auto;mix-blend-mode:normal;color-interpolation:sRGB;color-interpolation-filters:linearRGB;solid-color:#000000;solid-opacity:1;vector-effect:none;fill:#000000;fill-opacity:1;fill-rule:nonzero;stroke:none;stroke-width:1;stroke-linecap:round;stroke-linejoin:round;stroke-miterlimit:4;stroke-dasharray:none;stroke-dashoffset:0;stroke-opacity:1;paint-order:normal;color-rendering:auto;image-rendering:auto;shape-rendering:auto;text-rendering:auto;enable-background:accumulate"
       inkscape:connector-curvature="0" />
  </g>
</svg>
