<?xml version="1.0" encoding="UTF-8" standalone="no"?>
<svg
   xmlns:dc="http://purl.org/dc/elements/1.1/"
   xmlns:cc="http://creativecommons.org/ns#"
   xmlns:rdf="http://www.w3.org/1999/02/22-rdf-syntax-ns#"
   xmlns:svg="http://www.w3.org/2000/svg"
   xmlns="http://www.w3.org/2000/svg"
   id="svg4562"
   version="1.1"
   viewBox="0 0 20 20"
   height="20"
   width="20">
  <defs
     id="defs4556" />
  <metadata
     id="metadata4559">
    <rdf:RDF>
      <cc:Work
         rdf:about="">
        <dc:format>image/svg+xml</dc:format>
        <dc:type
           rdf:resource="http://purl.org/dc/dcmitype/StillImage" />
        <dc:title></dc:title>
      </cc:Work>
    </rdf:RDF>
  </metadata>
  <g
     transform="translate(254.64624,-33.85157)"
     id="layer1">
    <path
       id="rect6404"
       d="m -252.13133,34.052959 c 0,0 0.005,0.965657 0.005,2.165129 v 14.226044 h 1.873 l -1.62635,2.81656 0.67395,0.38949 0.88602,-1.533818 h 11.35194 l 0.886,1.533818 0.67357,-0.38949 -1.62596,-2.81656 h 1.87301 V 36.218088 c 0,-1.199472 -0.0314,-2.165129 -0.0314,-2.165129 z m 0.98056,2.400514 h 13.01412 v 6.188787 h -13.01412 z m 10.14364,8.496354 c 0.70479,3.2e-5 1.27587,0.571517 1.2759,1.276305 -3e-5,0.704788 -0.57111,1.275871 -1.2759,1.275902 -0.70479,-3.1e-5 -1.27627,-0.571114 -1.2763,-1.275902 3e-5,-0.704788 0.57151,-1.276273 1.2763,-1.276305 z m -7.27276,0.03541 c 0.70479,3.1e-5 1.27628,0.571113 1.27631,1.275901 -3e-5,0.704789 -0.57152,1.276273 -1.27631,1.276305 -0.70479,-3.2e-5 -1.27587,-0.571516 -1.27591,-1.276305 4e-5,-0.704788 0.57112,-1.27587 1.27591,-1.275901 z m -1.07351,5.458896 h 9.41979 l 0.51623,0.893654 h -10.45225 z"
       style="opacity:1;fill:#000000;fill-opacity:1;stroke:none;stroke-width:1.34781587;stroke-linecap:round;stroke-linejoin:miter;stroke-miterlimit:4;stroke-dasharray:none;stroke-dashoffset:0;stroke-opacity:1;paint-order:normal" />
    <g
       transform="translate(-82.127053,-274.48932)"
       id="g6434" />
  </g>
</svg>
