<svg width="27" height="30" viewBox="0 0 27 30" fill="none" xmlns="http://www.w3.org/2000/svg">
<path d="M20.9938 2.43236H6.00608C4.83815 2.43236 3.88257 3.49411 3.88257 4.79182V23.003C3.88257 24.1632 4.64708 25.1324 5.6436 25.3253V26.2C5.6436 27.3 6.4536 28.2 7.44361 28.2C8.43361 28.2 9.24361 27.3 9.24361 26.2V25.3625H17.7563V26.2C17.7563 27.3 18.5663 28.2 19.5563 28.2C20.5463 28.2 21.3563 27.3 21.3563 26.2V25.3253C22.3528 25.1324 23.1173 24.1632 23.1173 23.003V4.79182C23.1173 3.49411 22.1618 2.43236 20.9938 2.43236ZM7.44361 22.5C6.74773 22.5 6.1836 21.8732 6.1836 21.1C6.1836 20.3268 6.74773 19.7 7.44361 19.7C8.13948 19.7 8.70361 20.3268 8.70361 21.1C8.70361 21.8732 8.13948 22.5 7.44361 22.5ZM19.5563 22.5C18.8604 22.5 18.2963 21.8732 18.2963 21.1C18.2963 20.3268 18.8604 19.7 19.5563 19.7C20.2522 19.7 20.8163 20.3268 20.8163 21.1C20.8163 21.8732 20.2522 22.5 19.5563 22.5ZM21.3563 16.95H5.6436V10.0875C5.6436 9.75046 5.88952 9.47721 6.19286 9.47721H20.807C21.1104 9.47721 21.3563 9.75046 21.3563 10.0875V16.95ZM21.6674 5.98872C21.6674 6.86117 21.025 7.575 20.2398 7.575H7.10044C6.31367 7.575 5.66995 6.85976 5.66995 5.98557V5.93943C5.66995 5.06525 6.31367 4.35 7.10044 4.35H20.2398C21.025 4.35 21.6674 5.06382 21.6674 5.93628V5.98872Z" fill="black"/>
</svg>
