<?xml version="1.0" encoding="UTF-8" standalone="no"?>
<svg
   xmlns:dc="http://purl.org/dc/elements/1.1/"
   xmlns:cc="http://creativecommons.org/ns#"
   xmlns:rdf="http://www.w3.org/1999/02/22-rdf-syntax-ns#"
   xmlns:svg="http://www.w3.org/2000/svg"
   xmlns="http://www.w3.org/2000/svg"
   xmlns:sodipodi="http://sodipodi.sourceforge.net/DTD/sodipodi-0.dtd"
   xmlns:inkscape="http://www.inkscape.org/namespaces/inkscape"
   version="1.1"
   x="0px"
   y="0px"
   viewBox="0 0 100 100"
   style="enable-background:new 0 0 100 100;"
   xml:space="preserve"
   id="svg4"
   sodipodi:docname="noun-download-4149298.svg"
   inkscape:version="0.92.3 (2405546, 2018-03-11)"><metadata
     id="metadata10"><rdf:RDF><cc:Work
         rdf:about=""><dc:format>image/svg+xml</dc:format><dc:type
           rdf:resource="http://purl.org/dc/dcmitype/StillImage" /></cc:Work></rdf:RDF></metadata><defs
     id="defs8" /><sodipodi:namedview
     pagecolor="#ffffff"
     bordercolor="#666666"
     borderopacity="1"
     objecttolerance="10"
     gridtolerance="10"
     guidetolerance="10"
     inkscape:pageopacity="0"
     inkscape:pageshadow="2"
     inkscape:window-width="1920"
     inkscape:window-height="1052"
     id="namedview6"
     showgrid="false"
     inkscape:zoom="3.337544"
     inkscape:cx="50"
     inkscape:cy="50"
     inkscape:window-x="0"
     inkscape:window-y="0"
     inkscape:window-maximized="1"
     inkscape:current-layer="svg4" /><path
     style="color:#000000;font-style:normal;font-variant:normal;font-weight:normal;font-stretch:normal;font-size:medium;line-height:normal;font-family:sans-serif;font-variant-ligatures:normal;font-variant-position:normal;font-variant-caps:normal;font-variant-numeric:normal;font-variant-alternates:normal;font-feature-settings:normal;text-indent:0;text-align:start;text-decoration:none;text-decoration-line:none;text-decoration-style:solid;text-decoration-color:#000000;letter-spacing:normal;word-spacing:normal;text-transform:none;writing-mode:lr-tb;direction:ltr;text-orientation:mixed;dominant-baseline:auto;baseline-shift:baseline;text-anchor:start;white-space:normal;shape-padding:0;clip-rule:nonzero;display:inline;overflow:visible;visibility:visible;opacity:1;isolation:auto;mix-blend-mode:normal;color-interpolation:sRGB;color-interpolation-filters:linearRGB;solid-color:#000000;solid-opacity:1;vector-effect:none;fill:#000000;fill-opacity:1;fill-rule:nonzero;stroke:none;stroke-width:7.55900002;stroke-linecap:butt;stroke-linejoin:miter;stroke-miterlimit:4;stroke-dasharray:none;stroke-dashoffset:0;stroke-opacity:1;color-rendering:auto;image-rendering:auto;shape-rendering:auto;text-rendering:auto;enable-background:accumulate"
     d="M 46.220703 1.3339844 L 46.220703 71.919922 L 33.521484 59.222656 L 28.177734 64.568359 L 44.654297 81.044922 L 50 86.390625 L 55.34375 81.044922 L 71.822266 64.568359 L 66.476562 59.222656 L 53.779297 71.919922 L 53.779297 1.3339844 L 46.220703 1.3339844 z M 1.71875 58.554688 L 1.71875 85.994141 L 1.734375 86.167969 C 1.734375 86.167969 1.9489304 88.918922 3.4960938 91.751953 C 5.0432568 94.584984 8.6106263 97.839844 13.738281 97.839844 L 40.998047 97.839844 L 58.830078 97.839844 L 86.091797 97.839844 C 91.219453 97.839844 94.784868 94.584985 96.332031 91.751953 C 97.879194 88.918922 98.09375 86.167969 98.09375 86.167969 L 98.109375 85.994141 L 98.109375 58.554688 L 90.550781 58.554688 L 90.550781 85.521484 C 90.544681 85.570304 90.389048 86.86575 89.699219 88.128906 C 88.996497 89.415671 88.443781 90.28125 86.091797 90.28125 L 58.830078 90.28125 L 40.998047 90.28125 L 13.738281 90.28125 C 11.386298 90.28125 10.833582 89.415671 10.130859 88.128906 C 9.4405609 86.86489 9.2832151 85.566623 9.2773438 85.519531 L 9.2773438 58.554688 L 1.71875 58.554688 z "
     id="path826" /></svg>