<?xml version="1.0" encoding="UTF-8" standalone="no"?>
<svg
   xmlns:dc="http://purl.org/dc/elements/1.1/"
   xmlns:cc="http://creativecommons.org/ns#"
   xmlns:rdf="http://www.w3.org/1999/02/22-rdf-syntax-ns#"
   xmlns:svg="http://www.w3.org/2000/svg"
   xmlns="http://www.w3.org/2000/svg"
   width="32"
   height="32"
   viewBox="0 0 32 32"
   version="1.1"
   id="svg4562">
  <defs
     id="defs4556" />
  <metadata
     id="metadata4559">
    <rdf:RDF>
      <cc:Work
         rdf:about="">
        <dc:format>image/svg+xml</dc:format>
        <dc:type
           rdf:resource="http://purl.org/dc/dcmitype/StillImage" />
        <dc:title></dc:title>
      </cc:Work>
    </rdf:RDF>
  </metadata>
  <g
     id="layer1"
     transform="matrix(0.61775559,0,0,0.61775559,81.588562,-48.041641)">
    <path
       style="opacity:1;fill:#000000;fill-opacity:1;stroke:none;stroke-width:7.21275473;stroke-linecap:round;stroke-linejoin:miter;stroke-miterlimit:4;stroke-dasharray:none;stroke-dashoffset:0;stroke-opacity:1;paint-order:normal"
       d="m 44.21875,11.826172 -12.927734,58 H 5.1777344 V 89.589844 H 20.611328 v 66.746096 c 0,2.26941 1.828277,4.09765 4.097656,4.09765 h 14.460938 v 27.02539 h 25.060547 v -27.02539 h 70.359371 v 27.02539 h 25.0625 v -27.02539 h 14.45704 c 2.26948,0 4.09765,-1.82824 4.09765,-4.09765 V 89.589844 h 16.65235 V 69.826172 h -27.10352 l -12.92383,-58 z m 6.791016,8.001953 H 147.6875 l 14.37695,64.455078 H 36.648438 Z M 102.00977,29.986328 87.134766,55.75 H 98.617188 V 72.669922 L 112.90234,47.927734 h -11.07031 z m -69.361332,54.019531 1.24414,0.277344 h -1.24414 z m 130.927732,0.246094 0.008,0.0293 h -0.16015 z M 56.998047,109.34375 a 13.012309,13.012309 0 0 1 13.013672,13.01367 13.012309,13.012309 0 0 1 -13.013672,13.01172 13.012309,13.012309 0 0 1 -13.011719,-13.01172 13.012309,13.012309 0 0 1 13.011719,-13.01367 z m 84.820313,0 a 13.01231,13.01231 0 0 1 13.01367,13.01367 13.01231,13.01231 0 0 1 -13.01367,13.01172 13.01231,13.01231 0 0 1 -13.01172,-13.01172 13.01231,13.01231 0 0 1 13.01172,-13.01367 z"
       transform="matrix(0.26458333,0,0,0.26458333,-132.54185,77.070234)"
       id="path4498" />
  </g>
</svg>
