<?xml version="1.0" encoding="UTF-8" standalone="no"?>
<svg
   xmlns:dc="http://purl.org/dc/elements/1.1/"
   xmlns:cc="http://creativecommons.org/ns#"
   xmlns:rdf="http://www.w3.org/1999/02/22-rdf-syntax-ns#"
   xmlns:svg="http://www.w3.org/2000/svg"
   xmlns="http://www.w3.org/2000/svg"
   id="svg4562"
   version="1.1"
   viewBox="0 0 52.916672 52.916672"
   height="52.916672mm"
   width="52.916672mm">
  <defs
     id="defs4556" />
  <metadata
     id="metadata4559">
    <rdf:RDF>
      <cc:Work
         rdf:about="">
        <dc:format>image/svg+xml</dc:format>
        <dc:type
           rdf:resource="http://purl.org/dc/dcmitype/StillImage" />
        <dc:title></dc:title>
      </cc:Work>
    </rdf:RDF>
  </metadata>
  <g
     transform="translate(132.54185,-77.070234)"
     id="layer1">
    <path
       id="path4498"
       transform="matrix(0.26458333,0,0,0.26458333,-132.54185,77.070234)"
       d="M 44.21875 11.826172 L 31.291016 69.826172 L 5.1777344 69.826172 L 5.1777344 89.589844 L 20.611328 89.589844 L 20.611328 156.33594 C 20.611328 158.60535 22.439605 160.43359 24.708984 160.43359 L 39.169922 160.43359 L 39.169922 187.45898 L 64.230469 187.45898 L 64.230469 160.43359 L 134.58984 160.43359 L 134.58984 187.45898 L 159.65234 187.45898 L 159.65234 160.43359 L 174.10938 160.43359 C 176.37886 160.43359 178.20703 158.60535 178.20703 156.33594 L 178.20703 89.589844 L 194.85938 89.589844 L 194.85938 69.826172 L 167.75586 69.826172 L 154.83203 11.826172 L 44.21875 11.826172 z M 51.009766 19.828125 L 147.6875 19.828125 L 162.06445 84.283203 L 36.648438 84.283203 L 51.009766 19.828125 z M 102.00977 29.986328 L 87.134766 55.75 L 98.617188 55.75 L 98.617188 72.669922 L 112.90234 47.927734 L 101.83203 47.927734 L 102.00977 29.986328 z M 32.648438 84.005859 L 33.892578 84.283203 L 32.648438 84.283203 L 32.648438 84.005859 z M 163.57617 84.251953 L 163.58398 84.28125 L 163.42383 84.28125 L 163.57617 84.251953 z M 56.998047 109.34375 A 13.012309 13.012309 0 0 1 70.011719 122.35742 A 13.012309 13.012309 0 0 1 56.998047 135.36914 A 13.012309 13.012309 0 0 1 43.986328 122.35742 A 13.012309 13.012309 0 0 1 56.998047 109.34375 z M 141.81836 109.34375 A 13.01231 13.01231 0 0 1 154.83203 122.35742 A 13.01231 13.01231 0 0 1 141.81836 135.36914 A 13.01231 13.01231 0 0 1 128.80664 122.35742 A 13.01231 13.01231 0 0 1 141.81836 109.34375 z "
       style="opacity:1;fill:#000000;fill-opacity:1;stroke:none;stroke-width:7.21275473;stroke-linecap:round;stroke-linejoin:miter;stroke-miterlimit:4;stroke-dasharray:none;stroke-dashoffset:0;stroke-opacity:1;paint-order:normal" />
  </g>
</svg>
