<?xml version="1.0" encoding="UTF-8" standalone="no"?>
<svg
   xmlns:dc="http://purl.org/dc/elements/1.1/"
   xmlns:cc="http://creativecommons.org/ns#"
   xmlns:rdf="http://www.w3.org/1999/02/22-rdf-syntax-ns#"
   xmlns:svg="http://www.w3.org/2000/svg"
   xmlns="http://www.w3.org/2000/svg"
   width="20"
   height="20"
   viewBox="0 0 20 20"
   version="1.1"
   id="svg4562">
  <defs
     id="defs4556" />
  <metadata
     id="metadata4559">
    <rdf:RDF>
      <cc:Work
         rdf:about="">
        <dc:format>image/svg+xml</dc:format>
        <dc:type
           rdf:resource="http://purl.org/dc/dcmitype/StillImage" />
        <dc:title></dc:title>
      </cc:Work>
    </rdf:RDF>
  </metadata>
  <g
     id="layer1"
     transform="matrix(0.79609724,0,0,0.79609724,194.10994,-45.908025)">
    <path
       style="opacity:1;fill:#000000;fill-opacity:1;stroke:none;stroke-width:3.50988197;stroke-linecap:round;stroke-linejoin:miter;stroke-miterlimit:4;stroke-dasharray:none;stroke-dashoffset:0;stroke-opacity:1;paint-order:normal"
       d="M 23,7.0585938 16.708984,35.283203 H 4.0019531 v 9.617188 h 7.5097659 v 32.480468 c 0,1.104341 0.889762,1.994141 1.99414,1.994141 h 7.03711 V 92.525391 H 32.738281 V 79.375 H 66.976562 V 92.525391 H 79.171875 V 79.375 h 7.035156 c 1.104378,0 1.994141,-0.8898 1.994141,-1.994141 V 44.900391 h 8.103516 V 35.283203 H 83.115234 L 76.826172,7.0585938 Z m 3.304688,3.8945312 h 47.044921 l 6.996094,31.365234 H 19.316406 Z m 24.841796,4.480469 -7.416015,12.847656 h 5.724609 v 8.4375 l 7.123047,-12.337891 h -5.519531 z m -33.777343,26.75 0.605468,0.134765 h -0.605468 z m 63.71289,0.11914 0.0039,0.01367 h -0.07813 z M 29.21875,54.513672 a 6.33207,6.33207 0 0 1 6.332031,6.332031 6.33207,6.33207 0 0 1 -6.332031,6.332031 6.33207,6.33207 0 0 1 -6.332031,-6.332031 6.33207,6.33207 0 0 1 6.332031,-6.332031 z m 41.275391,0 a 6.3320704,6.3320704 0 0 1 6.332031,6.332031 6.3320704,6.3320704 0 0 1 -6.332031,6.332031 6.3320704,6.3320704 0 0 1 -6.332032,-6.332031 6.3320704,6.3320704 0 0 1 6.332032,-6.332031 z"
       transform="matrix(0.26458333,0,0,0.26458333,-244.53537,57.053502)"
       id="path6400" />
  </g>
</svg>
