<?xml version="1.0" encoding="UTF-8" standalone="no"?>
<svg
   xmlns:dc="http://purl.org/dc/elements/1.1/"
   xmlns:cc="http://creativecommons.org/ns#"
   xmlns:rdf="http://www.w3.org/1999/02/22-rdf-syntax-ns#"
   xmlns:svg="http://www.w3.org/2000/svg"
   xmlns="http://www.w3.org/2000/svg"
   id="svg4562"
   version="1.1"
   viewBox="0 0 26.458336 26.458336"
   height="26.458336mm"
   width="26.458336mm">
  <defs
     id="defs4556" />
  <metadata
     id="metadata4559">
    <rdf:RDF>
      <cc:Work
         rdf:about="">
        <dc:format>image/svg+xml</dc:format>
        <dc:type
           rdf:resource="http://purl.org/dc/dcmitype/StillImage" />
        <dc:title></dc:title>
      </cc:Work>
    </rdf:RDF>
  </metadata>
  <g
     transform="translate(244.53537,-57.053502)"
     id="layer1">
    <path
       id="path6400"
       transform="matrix(0.26458333,0,0,0.26458333,-244.53537,57.053502)"
       d="M 23 7.0585938 L 16.708984 35.283203 L 4.0019531 35.283203 L 4.0019531 44.900391 L 11.511719 44.900391 L 11.511719 77.380859 C 11.511719 78.4852 12.401481 79.375 13.505859 79.375 L 20.542969 79.375 L 20.542969 92.525391 L 32.738281 92.525391 L 32.738281 79.375 L 66.976562 79.375 L 66.976562 92.525391 L 79.171875 92.525391 L 79.171875 79.375 L 86.207031 79.375 C 87.311409 79.375 88.201172 78.4852 88.201172 77.380859 L 88.201172 44.900391 L 96.304688 44.900391 L 96.304688 35.283203 L 83.115234 35.283203 L 76.826172 7.0585938 L 23 7.0585938 z M 26.304688 10.953125 L 73.349609 10.953125 L 80.345703 42.318359 L 19.316406 42.318359 L 26.304688 10.953125 z M 51.146484 15.433594 L 43.730469 28.28125 L 49.455078 28.28125 L 49.455078 36.71875 L 56.578125 24.380859 L 51.058594 24.380859 L 51.146484 15.433594 z M 17.369141 42.183594 L 17.974609 42.318359 L 17.369141 42.318359 L 17.369141 42.183594 z M 81.082031 42.302734 L 81.085938 42.316406 L 81.007812 42.316406 L 81.082031 42.302734 z M 29.21875 54.513672 A 6.33207 6.33207 0 0 1 35.550781 60.845703 A 6.33207 6.33207 0 0 1 29.21875 67.177734 A 6.33207 6.33207 0 0 1 22.886719 60.845703 A 6.33207 6.33207 0 0 1 29.21875 54.513672 z M 70.494141 54.513672 A 6.3320704 6.3320704 0 0 1 76.826172 60.845703 A 6.3320704 6.3320704 0 0 1 70.494141 67.177734 A 6.3320704 6.3320704 0 0 1 64.162109 60.845703 A 6.3320704 6.3320704 0 0 1 70.494141 54.513672 z "
       style="opacity:1;fill:#000000;fill-opacity:1;stroke:none;stroke-width:3.50988197;stroke-linecap:round;stroke-linejoin:miter;stroke-miterlimit:4;stroke-dasharray:none;stroke-dashoffset:0;stroke-opacity:1;paint-order:normal" />
  </g>
</svg>
