<?xml version="1.0" encoding="UTF-8" standalone="no"?>
<svg
   xmlns:dc="http://purl.org/dc/elements/1.1/"
   xmlns:cc="http://creativecommons.org/ns#"
   xmlns:rdf="http://www.w3.org/1999/02/22-rdf-syntax-ns#"
   xmlns:svg="http://www.w3.org/2000/svg"
   xmlns="http://www.w3.org/2000/svg"
   width="20"
   height="20"
   viewBox="0 0 20 20"
   version="1.1"
   id="svg4562">
  <defs
     id="defs4556" />
  <metadata
     id="metadata4559">
    <rdf:RDF>
      <cc:Work
         rdf:about="">
        <dc:format>image/svg+xml</dc:format>
        <dc:type
           rdf:resource="http://purl.org/dc/dcmitype/StillImage" />
        <dc:title></dc:title>
      </cc:Work>
    </rdf:RDF>
  </metadata>
  <g
     id="layer1"
     transform="matrix(0.79068248,0,0,0.79068248,199.59338,-26.192167)">
    <g
       id="g6434"
       transform="translate(-82.127053,-274.48932)" />
    <path
       style="opacity:1;fill:#000000;fill-opacity:1;stroke:none;stroke-width:4.31611061;stroke-linecap:round;stroke-linejoin:miter;stroke-miterlimit:4;stroke-dasharray:none;stroke-dashoffset:0;stroke-opacity:1;paint-order:normal"
       d="m 22.15625,3.3925781 c -4.739263,0 -8.554688,3.8153867 -8.554688,8.5546879 V 35.716797 H 5.4785156 v 8.3125 h 8.1230464 v 33.416015 c 0,4.739301 0.04883,8.513672 0.04883,8.513672 L 24.876953,86 v 10.326172 h 9.847656 V 86 h 30.152344 v 10.326172 h 9.847656 V 86 l 11.248047,-0.04102 c 0,0 0.02539,-3.774371 0.02539,-8.513672 V 44.029297 h 8.232422 v -8.3125 H 85.998047 V 11.947266 c 0,-4.7393012 -3.815425,-8.5546879 -8.554688,-8.5546879 z M 18.611328,14.96875 H 81.240234 V 46.029297 H 18.611328 Z m 49.246094,42.910156 c 3.486841,5.29e-4 6.313067,2.827612 6.3125,6.314453 -5.29e-4,3.486085 -2.826415,6.311971 -6.3125,6.3125 -3.486841,5.67e-4 -6.313924,-2.825659 -6.314453,-6.3125 -5.67e-4,-3.487634 2.826818,-6.31502 6.314453,-6.314453 z m -34.851563,1.009766 c 3.487597,-5.29e-4 6.31502,2.826856 6.314453,6.314453 -5.29e-4,3.486841 -2.827612,6.313029 -6.314453,6.3125 -3.486085,-4.91e-4 -6.312008,-2.826415 -6.3125,-6.3125 -5.67e-4,-3.486879 2.825622,-6.313924 6.3125,-6.314453 z"
       transform="matrix(0.26458333,0,0,0.26458333,-252.97514,32.581366)"
       id="rect6438" />
  </g>
</svg>
