<?xml version="1.0" encoding="UTF-8" standalone="no"?>
<svg
   xmlns:dc="http://purl.org/dc/elements/1.1/"
   xmlns:cc="http://creativecommons.org/ns#"
   xmlns:rdf="http://www.w3.org/1999/02/22-rdf-syntax-ns#"
   xmlns:svg="http://www.w3.org/2000/svg"
   xmlns="http://www.w3.org/2000/svg"
   id="svg4562"
   version="1.1"
   viewBox="0 0 26.458336 26.458336"
   height="26.458336mm"
   width="26.458336mm">
  <defs
     id="defs4556" />
  <metadata
     id="metadata4559">
    <rdf:RDF>
      <cc:Work
         rdf:about="">
        <dc:format>image/svg+xml</dc:format>
        <dc:type
           rdf:resource="http://purl.org/dc/dcmitype/StillImage" />
        <dc:title></dc:title>
      </cc:Work>
    </rdf:RDF>
  </metadata>
  <g
     transform="translate(252.97514,-32.581366)"
     id="layer1">
    <g
       transform="translate(-82.127053,-274.48932)"
       id="g6434" />
    <path
       id="rect6438"
       transform="matrix(0.26458333,0,0,0.26458333,-252.97514,32.581366)"
       d="M 22.15625 3.3925781 C 17.416987 3.3925781 13.601562 7.2079648 13.601562 11.947266 L 13.601562 35.716797 L 5.4785156 35.716797 L 5.4785156 44.029297 L 13.601562 44.029297 L 13.601562 77.445312 C 13.601562 82.184613 13.650391 85.958984 13.650391 85.958984 L 24.876953 86 L 24.876953 96.326172 L 34.724609 96.326172 L 34.724609 86 L 64.876953 86 L 64.876953 96.326172 L 74.724609 96.326172 L 74.724609 86 L 85.972656 85.958984 C 85.972656 85.958984 85.998047 82.184613 85.998047 77.445312 L 85.998047 44.029297 L 94.230469 44.029297 L 94.230469 35.716797 L 85.998047 35.716797 L 85.998047 11.947266 C 85.998047 7.2079648 82.182622 3.3925781 77.443359 3.3925781 L 22.15625 3.3925781 z M 18.611328 14.96875 L 81.240234 14.96875 L 81.240234 46.029297 L 18.611328 46.029297 L 18.611328 14.96875 z M 67.857422 57.878906 C 71.344263 57.879435 74.170489 60.706518 74.169922 64.193359 C 74.169393 67.679444 71.343507 70.50533 67.857422 70.505859 C 64.370581 70.506426 61.543498 67.6802 61.542969 64.193359 C 61.542402 60.705725 64.369787 57.878339 67.857422 57.878906 z M 33.005859 58.888672 C 36.493456 58.888143 39.320879 61.715528 39.320312 65.203125 C 39.319783 68.689966 36.4927 71.516154 33.005859 71.515625 C 29.519774 71.515134 26.693851 68.68921 26.693359 65.203125 C 26.692792 61.716246 29.518981 58.889201 33.005859 58.888672 z "
       style="opacity:1;fill:#000000;fill-opacity:1;stroke:none;stroke-width:4.31611061;stroke-linecap:round;stroke-linejoin:miter;stroke-miterlimit:4;stroke-dasharray:none;stroke-dashoffset:0;stroke-opacity:1;paint-order:normal" />
  </g>
</svg>
