<?xml version="1.0" encoding="UTF-8" standalone="no"?>
<svg
   xmlns:dc="http://purl.org/dc/elements/1.1/"
   xmlns:cc="http://creativecommons.org/ns#"
   xmlns:rdf="http://www.w3.org/1999/02/22-rdf-syntax-ns#"
   xmlns:svg="http://www.w3.org/2000/svg"
   xmlns="http://www.w3.org/2000/svg"
   id="svg1410"
   version="1.1"
   viewBox="0 0 26.458336 26.458336"
   height="26.458336mm"
   width="26.458336mm">
  <defs
     id="defs1404" />
  <metadata
     id="metadata1407">
    <rdf:RDF>
      <cc:Work
         rdf:about="">
        <dc:format>image/svg+xml</dc:format>
        <dc:type
           rdf:resource="http://purl.org/dc/dcmitype/StillImage" />
        <dc:title></dc:title>
      </cc:Work>
    </rdf:RDF>
  </metadata>
  <g
     transform="translate(94.305061,-62.087797)"
     id="layer1">
    <path
       id="path1361"
       transform="matrix(0.26458333,0,0,0.26458333,-94.305061,62.087797)"
       d="M 37.804688 0.16992188 C 33.749595 0.16912817 30.462097 3.4566258 30.462891 7.5117188 C 30.463193 11.566018 33.750388 14.852356 37.804688 14.851562 C 41.858231 14.85126 45.144229 11.565262 45.144531 7.5117188 C 45.145325 3.4573817 41.859025 0.17022424 37.804688 0.16992188 z M 88.666016 8.6660156 L 8.6601562 88.664062 L 11.332031 91.335938 L 91.337891 11.339844 L 88.666016 8.6660156 z M 29.878906 16.283203 C 28.999788 16.32251 28.32052 16.483907 27.949219 16.806641 L 27.947266 16.808594 L 13.191406 25.439453 L 4.6875 37.677734 L 8.9179688 41.193359 L 16.472656 30.589844 L 25.525391 26.322266 L 20.386719 46.505859 L 20.416016 46.505859 L 16.314453 61.820312 L 0.59375 70.839844 L 4.1113281 76.923828 L 22.355469 66.455078 L 27.414062 47.564453 C 27.414062 47.564453 31.195693 54.032901 33.875 58.632812 L 39.09375 53.416016 L 35.507812 47.041016 L 40.115234 28.048828 L 46.689453 37.482422 L 53.052734 39.455078 L 57.289062 35.21875 L 51.318359 33.300781 C 51.318359 33.300781 46.309816 20.427075 43.511719 19.205078 C 41.238635 18.212385 33.692903 16.112406 29.878906 16.283203 z M 70.542969 48.615234 C 69.988739 48.615234 69.469862 48.885469 69.152344 49.339844 C 68.834485 49.793916 68.755467 50.376119 68.945312 50.896484 L 70.423828 54.933594 L 52.429688 54.933594 L 49.035156 58.328125 L 69.164062 58.328125 L 56.435547 77.738281 L 48.974609 58.388672 L 46.349609 61.011719 L 53.568359 79.738281 L 49.753906 79.738281 C 49.253081 74.630703 46.517091 70.168469 42.539062 67.347656 C 40.504127 66.01953 40.097818 66.192002 36.818359 70.544922 L 31.105469 80.595703 C 30.806886 81.120906 30.809156 81.764741 31.117188 82.287109 C 31.421062 82.809327 31.979676 83.130746 32.583984 83.130859 L 46.341797 83.130859 C 45.50191 89.977474 39.653893 95.298828 32.583984 95.298828 C 27.044671 95.298828 22.2676 92.025345 20.048828 87.318359 L 17.523438 89.84375 C 20.480124 95.116682 26.116859 98.693359 32.580078 98.693359 C 41.523499 98.693359 48.900552 91.853366 49.755859 83.130859 L 56.042969 83.130859 C 56.614925 83.130859 57.149341 82.843307 57.462891 82.365234 L 72.224609 59.851562 L 74.433594 65.890625 C 68.660592 68.685132 64.669922 74.603257 64.669922 81.435547 C 64.669922 90.951679 72.411602 98.693359 81.927734 98.693359 C 91.443829 98.693359 99.185547 90.951679 99.185547 81.435547 C 99.185547 71.920775 91.445921 64.17786 81.931641 64.175781 L 81.929688 64.175781 L 81.927734 64.175781 C 80.442267 64.176084 78.999248 64.365541 77.623047 64.720703 L 72.972656 52.009766 L 79.322266 52.009766 C 80.259475 52.009766 81.019531 51.249709 81.019531 50.3125 C 81.019531 49.375177 80.259475 48.615234 79.322266 48.615234 L 70.542969 48.615234 z M 81.929688 67.570312 C 89.574425 67.570312 95.792969 73.790848 95.792969 81.435547 C 95.792969 89.080246 89.574425 95.298828 81.929688 95.298828 C 74.285026 95.298828 68.064453 89.080359 68.064453 81.435547 C 68.064453 76.066577 71.134717 71.403673 75.609375 69.101562 L 80.335938 82.017578 C 80.587654 82.70549 81.237391 83.132812 81.929688 83.132812 C 82.123199 83.132812 82.319454 83.09884 82.511719 83.029297 C 83.391895 82.707281 83.845453 81.731663 83.523438 80.851562 L 78.796875 67.931641 C 79.804459 67.698066 80.852031 67.570312 81.929688 67.570312 z M 40.853516 70.316406 C 43.816098 72.526183 45.865979 75.89178 46.337891 79.738281 L 35.498047 79.738281 L 40.853516 70.316406 z "
       style="display:inline;stroke-width:0.16970553" />
  </g>
</svg>
