<?xml version="1.0" encoding="UTF-8" standalone="no"?>
<svg
   xmlns:dc="http://purl.org/dc/elements/1.1/"
   xmlns:cc="http://creativecommons.org/ns#"
   xmlns:rdf="http://www.w3.org/1999/02/22-rdf-syntax-ns#"
   xmlns:svg="http://www.w3.org/2000/svg"
   xmlns="http://www.w3.org/2000/svg"
   width="20"
   height="20"
   viewBox="0 0 20 20"
   version="1.1"
   id="svg1410">
  <defs
     id="defs1404" />
  <metadata
     id="metadata1407">
    <rdf:RDF>
      <cc:Work
         rdf:about="">
        <dc:format>image/svg+xml</dc:format>
        <dc:type
           rdf:resource="http://purl.org/dc/dcmitype/StillImage" />
        <dc:title></dc:title>
      </cc:Work>
    </rdf:RDF>
  </metadata>
  <g
     id="layer1"
     transform="matrix(0.74642259,0,0,0.74642259,70.538672,-46.106037)">
    <path
       style="display:inline;stroke-width:0.16970553"
       d="m 37.804688,0.16992188 c -4.055093,-7.9371e-4 -7.342591,3.28670392 -7.341797,7.34179692 3.02e-4,4.0542992 3.287497,7.3406372 7.341797,7.3398432 4.053543,-3.02e-4 7.339541,-3.2863 7.339843,-7.3398432 7.94e-4,-4.0543371 -3.285506,-7.34149456 -7.339843,-7.34179692 z M 88.666016,8.6660156 8.6601562,88.664062 11.332031,91.335938 91.337891,11.339844 Z m -58.78711,7.6171874 c -0.879118,0.03931 -1.558386,0.200704 -1.929687,0.523438 l -0.002,0.002 -14.75586,8.630859 -8.503906,12.238281 4.2304688,3.515625 7.5546872,-10.603515 9.052735,-4.267578 -5.138672,20.183593 h 0.0293 L 16.314453,61.820312 0.59375,70.839844 4.1113281,76.923828 22.355469,66.455078 27.414062,47.564453 c 0,0 3.781631,6.468448 6.460938,11.068359 l 5.21875,-5.216796 -3.585938,-6.375 4.607422,-18.992188 6.574219,9.433594 6.363281,1.972656 4.236328,-4.236328 -5.970703,-1.917969 c 0,0 -5.008543,-12.873706 -7.80664,-14.095703 -2.273084,-0.992693 -9.818816,-3.092672 -13.632813,-2.921875 z m 40.664063,32.332031 c -0.55423,0 -1.073107,0.270235 -1.390625,0.72461 -0.317859,0.454072 -0.396877,1.036275 -0.207032,1.55664 l 1.478516,4.03711 h -17.99414 l -3.394532,3.394531 h 20.128906 l -12.728515,19.410156 -7.460938,-19.349609 -2.625,2.623047 7.21875,18.726562 H 49.753906 C 49.253081,74.630703 46.517091,70.168469 42.539062,67.347656 40.504127,66.01953 40.097818,66.192002 36.818359,70.544922 l -5.71289,10.050781 c -0.298583,0.525203 -0.296313,1.169038 0.01172,1.691406 0.303874,0.522218 0.862488,0.843637 1.466796,0.84375 h 13.757813 c -0.839887,6.846615 -6.687904,12.167969 -13.757813,12.167969 -5.539313,0 -10.316384,-3.273483 -12.535156,-7.980469 l -2.52539,2.525391 c 2.956686,5.272932 8.593421,8.849609 15.05664,8.849609 8.943421,0 16.320474,-6.839993 17.175781,-15.5625 h 6.28711 c 0.571956,0 1.106372,-0.287552 1.419922,-0.765625 l 14.761718,-22.513672 2.208985,6.039063 c -5.773002,2.794507 -9.763672,8.712632 -9.763672,15.544922 0,9.516132 7.74168,17.257812 17.257812,17.257812 9.516095,0 17.257813,-7.74168 17.257813,-17.257812 0,-9.514772 -7.739626,-17.257687 -17.253906,-17.259766 h -0.002 -0.002 c -1.485467,3.03e-4 -2.928486,0.18976 -4.304687,0.544922 L 72.972656,52.009766 h 6.34961 c 0.937209,0 1.697265,-0.760057 1.697265,-1.697266 0,-0.937323 -0.760056,-1.697266 -1.697265,-1.697266 z m 11.386719,18.955078 c 7.644737,0 13.863281,6.220536 13.863281,13.865235 0,7.644699 -6.218544,13.863281 -13.863281,13.863281 -7.644662,0 -13.865235,-6.218469 -13.865235,-13.863281 0,-5.36897 3.070264,-10.031874 7.544922,-12.333985 l 4.726563,12.916016 c 0.251716,0.687912 0.901453,1.115234 1.59375,1.115234 0.193511,0 0.389766,-0.03397 0.582031,-0.103515 0.880176,-0.322016 1.333734,-1.297634 1.011719,-2.177735 L 78.796875,67.931641 c 1.007584,-0.233575 2.055156,-0.361329 3.132813,-0.361329 z m -41.076172,2.746094 c 2.962582,2.209777 5.012463,5.575374 5.484375,9.421875 H 35.498047 Z"
       transform="matrix(0.26458333,0,0,0.26458333,-94.305061,62.087797)"
       id="path1361" />
  </g>
</svg>
