<?xml version="1.0" encoding="UTF-8" standalone="no"?>
<svg
   xmlns:dc="http://purl.org/dc/elements/1.1/"
   xmlns:cc="http://creativecommons.org/ns#"
   xmlns:rdf="http://www.w3.org/1999/02/22-rdf-syntax-ns#"
   xmlns:svg="http://www.w3.org/2000/svg"
   xmlns="http://www.w3.org/2000/svg"
   id="svg4562"
   version="1.1"
   viewBox="0 0 26.458336 26.458336"
   height="26.458336mm"
   width="26.458336mm">
  <defs
     id="defs4556" />
  <metadata
     id="metadata4559">
    <rdf:RDF>
      <cc:Work
         rdf:about="">
        <dc:format>image/svg+xml</dc:format>
        <dc:type
           rdf:resource="http://purl.org/dc/dcmitype/StillImage" />
        <dc:title></dc:title>
      </cc:Work>
    </rdf:RDF>
  </metadata>
  <g
     transform="translate(194.54801,-77.747697)"
     id="layer1">
    <path
       id="path6377"
       d="m -179.04344,77.867739 a 2.4229429,2.4229429 0 0 0 -2.4231,2.423107 2.4229429,2.4229429 0 0 0 2.4231,2.423107 2.4229429,2.4229429 0 0 0 2.42311,-2.423107 2.4229429,2.4229429 0 0 0 -2.42311,-2.423107 z m -2.61534,5.318548 c -0.29048,0.01296 -0.51502,0.06599 -0.63769,0.172588 h -5.3e-4 l -4.87102,2.848928 -2.80655,4.039552 1.3963,1.160119 2.4939,-3.499512 2.98794,-1.409224 -1.69602,6.662632 h 0.0103 l -1.35392,5.054997 -5.18883,2.977093 1.16065,2.00813 6.02237,-3.455085 1.66967,-6.235806 c 0,0 1.88078,3.207333 2.66805,4.569752 v 5.876659 h 2.32079 v -6.500388 l -2.31717,-4.11861 1.52084,-6.268879 2.17041,3.113511 4.55476,1.412848 0.60099,-1.627293 -3.6282,-1.165833 c 0,0 -1.65296,-4.249579 -2.57658,-4.652937 -0.75044,-0.327739 -3.24177,-1.020868 -4.5005,-0.964273 z"
       style="opacity:1;fill:#000000;fill-opacity:1;stroke:none;stroke-width:0.86338478;stroke-linecap:round;stroke-linejoin:miter;stroke-miterlimit:4;stroke-dasharray:none;stroke-dashoffset:0;stroke-opacity:1;paint-order:normal" />
  </g>
</svg>
