<?xml version="1.0" encoding="UTF-8" standalone="no"?>
<svg
   xmlns:dc="http://purl.org/dc/elements/1.1/"
   xmlns:cc="http://creativecommons.org/ns#"
   xmlns:rdf="http://www.w3.org/1999/02/22-rdf-syntax-ns#"
   xmlns:svg="http://www.w3.org/2000/svg"
   xmlns="http://www.w3.org/2000/svg"
   id="svg1389"
   version="1.1"
   viewBox="0 0 26.458336 26.458336"
   height="26.458336mm"
   width="26.458336mm">
  <defs
     id="defs1383" />
  <metadata
     id="metadata1386">
    <rdf:RDF>
      <cc:Work
         rdf:about="">
        <dc:format>image/svg+xml</dc:format>
        <dc:type
           rdf:resource="http://purl.org/dc/dcmitype/StillImage" />
        <dc:title></dc:title>
      </cc:Work>
    </rdf:RDF>
  </metadata>
  <g
     transform="translate(42.616818,-93.743304)"
     id="layer1">
    <path
       id="path1331"
       transform="matrix(0.26458333,0,0,0.26458333,-42.616818,93.743304)"
       d="M 50.083984 0.875 C 22.949029 0.875 0.90625 22.909947 0.90625 50.044922 C 0.90625 77.179851 22.949029 99.214844 50.083984 99.214844 C 77.218936 99.214844 99.255859 77.179851 99.255859 50.044922 C 99.255859 22.909947 77.218936 0.875 50.083984 0.875 z M 50.083984 4.6542969 C 75.176328 4.6542969 95.476563 24.952563 95.476562 50.044922 C 95.476562 75.137243 75.176328 95.435547 50.083984 95.435547 C 24.991637 95.435547 4.6855469 75.137243 4.6855469 50.044922 C 4.6855469 24.952563 24.991637 4.6542969 50.083984 4.6542969 z M 50.082031 22.503906 A 3.7795276 3.7795276 0 0 0 46.302734 26.283203 A 3.7795276 3.7795276 0 0 0 50.082031 30.0625 A 3.7795276 3.7795276 0 0 0 53.861328 26.283203 A 3.7795276 3.7795276 0 0 0 50.082031 22.503906 z M 46.304688 39.134766 L 46.304688 78.421875 L 53.863281 78.421875 L 53.863281 39.134766 L 46.304688 39.134766 z "
       style="color:#000000;font-style:normal;font-variant:normal;font-weight:normal;font-stretch:normal;font-size:medium;line-height:normal;font-family:sans-serif;font-variant-ligatures:normal;font-variant-position:normal;font-variant-caps:normal;font-variant-numeric:normal;font-variant-alternates:normal;font-feature-settings:normal;text-indent:0;text-align:start;text-decoration:none;text-decoration-line:none;text-decoration-style:solid;text-decoration-color:#000000;letter-spacing:normal;word-spacing:normal;text-transform:none;writing-mode:lr-tb;direction:ltr;text-orientation:mixed;dominant-baseline:auto;baseline-shift:baseline;text-anchor:start;white-space:normal;shape-padding:0;clip-rule:nonzero;display:inline;overflow:visible;visibility:visible;opacity:1;isolation:auto;mix-blend-mode:normal;color-interpolation:sRGB;color-interpolation-filters:linearRGB;solid-color:#000000;solid-opacity:1;vector-effect:none;fill:#000000;fill-opacity:1;fill-rule:nonzero;stroke:none;stroke-width:3.77952766;stroke-linecap:round;stroke-linejoin:round;stroke-miterlimit:4;stroke-dasharray:none;stroke-dashoffset:0;stroke-opacity:1;paint-order:normal;color-rendering:auto;image-rendering:auto;shape-rendering:auto;text-rendering:auto;enable-background:accumulate" />
  </g>
</svg>
