<?xml version="1.0" encoding="UTF-8" standalone="no"?>
<svg
   xmlns:dc="http://purl.org/dc/elements/1.1/"
   xmlns:cc="http://creativecommons.org/ns#"
   xmlns:rdf="http://www.w3.org/1999/02/22-rdf-syntax-ns#"
   xmlns:svg="http://www.w3.org/2000/svg"
   xmlns="http://www.w3.org/2000/svg"
   width="26.458336mm"
   height="26.458336mm"
   viewBox="0 0 26.458336 26.458336"
   version="1.1"
   id="svg1389">
  <defs
     id="defs1383" />
  <metadata
     id="metadata1386">
    <rdf:RDF>
      <cc:Work
         rdf:about="">
        <dc:format>image/svg+xml</dc:format>
        <dc:type
           rdf:resource="http://purl.org/dc/dcmitype/StillImage" />
        <dc:title></dc:title>
      </cc:Work>
    </rdf:RDF>
  </metadata>
  <g
     id="layer1"
     transform="translate(53.953124,-95.051339)">
    <path
       id="path1331"
       transform="matrix(0.26458334,0,0,0.26458334,-53.953124,95.051339)"
       d="M 49.998047 0.2578125 C 22.570766 0.2578125 0.2578125 22.570766 0.2578125 49.998047 C 0.2578125 77.425326 22.570766 99.744141 49.998047 99.744141 C 77.425326 99.744141 99.744141 77.425326 99.744141 49.998047 C 99.744141 22.570766 77.425326 0.2578125 49.998047 0.2578125 z M 49.998047 7.7578125 C 73.372024 7.7578125 92.244141 26.624066 92.244141 49.998047 C 92.244141 73.372024 73.372024 92.244141 49.998047 92.244141 C 26.624066 92.244141 7.7578125 73.372024 7.7578125 49.998047 C 7.7578125 26.624066 26.624066 7.7578125 49.998047 7.7578125 z M 50 22.041016 C 47.912805 22.041129 46.220832 23.733106 46.220703 25.820312 C 46.220832 27.907519 47.912805 29.599496 50 29.599609 C 52.087195 29.599496 53.779168 27.907519 53.779297 25.820312 C 53.779168 23.733106 52.087195 22.041129 50 22.041016 z M 46.222656 38.671875 L 46.222656 77.958984 L 53.78125 77.958984 L 53.78125 38.671875 L 46.222656 38.671875 z "
       style="color:#000000;font-style:normal;font-variant:normal;font-weight:normal;font-stretch:normal;font-size:medium;line-height:normal;font-family:sans-serif;font-variant-ligatures:normal;font-variant-position:normal;font-variant-caps:normal;font-variant-numeric:normal;font-variant-alternates:normal;font-feature-settings:normal;text-indent:0;text-align:start;text-decoration:none;text-decoration-line:none;text-decoration-style:solid;text-decoration-color:#000000;letter-spacing:normal;word-spacing:normal;text-transform:none;writing-mode:lr-tb;direction:ltr;text-orientation:mixed;dominant-baseline:auto;baseline-shift:baseline;text-anchor:start;white-space:normal;shape-padding:0;clip-rule:nonzero;display:inline;overflow:visible;visibility:visible;opacity:1;isolation:auto;mix-blend-mode:normal;color-interpolation:sRGB;color-interpolation-filters:linearRGB;solid-color:#000000;solid-opacity:1;vector-effect:none;fill:#000000;fill-opacity:1;fill-rule:nonzero;stroke:none;stroke-width:3.77952743;stroke-linecap:round;stroke-linejoin:round;stroke-miterlimit:4;stroke-dasharray:none;stroke-dashoffset:0;stroke-opacity:1;paint-order:normal;color-rendering:auto;image-rendering:auto;shape-rendering:auto;text-rendering:auto;enable-background:accumulate" />
  </g>
</svg>
