<?xml version="1.0" encoding="UTF-8" standalone="no"?>
<svg
   xmlns:dc="http://purl.org/dc/elements/1.1/"
   xmlns:cc="http://creativecommons.org/ns#"
   xmlns:rdf="http://www.w3.org/1999/02/22-rdf-syntax-ns#"
   xmlns:svg="http://www.w3.org/2000/svg"
   xmlns="http://www.w3.org/2000/svg"
   id="svg2742"
   version="1.1"
   viewBox="0 0 26.458336 26.458336"
   height="26.458336mm"
   width="26.458336mm">
  <defs
     id="defs2736" />
  <metadata
     id="metadata2739">
    <rdf:RDF>
      <cc:Work
         rdf:about="">
        <dc:format>image/svg+xml</dc:format>
        <dc:type
           rdf:resource="http://purl.org/dc/dcmitype/StillImage" />
        <dc:title></dc:title>
      </cc:Work>
    </rdf:RDF>
  </metadata>
  <g
     transform="translate(185.96429,-60.008933)"
     id="layer1">
    <g
       transform="translate(-129.39062,57.555007)"
       id="g2691" />
    <path
       id="path3568"
       d="m -173.17533,60.191298 c 0,0 -3.08663,2.236271 -3.08663,4.994526 0,2.481768 1.12039,4.091641 2.58641,4.39043 v 6.244063 l -3.0453,-3.045293 c 0.84465,-1.247085 0.50458,-3.189764 -1.2609,-4.955252 -1.95038,-1.950381 -5.71386,-1.349272 -5.71386,-1.349272 0,0 -0.60164,3.764 1.34875,5.714379 1.74493,1.74494 3.66383,2.097796 4.91236,1.290362 l 3.75895,3.759459 v 7.482232 l -3.0453,-3.045294 c 0.84495,-1.247071 0.50475,-3.190631 -1.2609,-4.956286 -1.95038,-1.950381 -5.71386,-1.348756 -5.71386,-1.348756 0,0 -0.60164,3.763484 1.34875,5.713865 1.74476,1.744774 3.6633,2.098014 4.91184,1.290876 l 3.75947,3.759462 v 0.129191 h 0.99994 v -0.160198 l 3.72845,-3.728455 c 1.24852,0.807736 3.16778,0.454231 4.91288,-1.290876 1.95039,-1.950381 1.34875,-5.713865 1.34875,-5.713865 0,0 -3.764,-0.601625 -5.71438,1.348756 -1.76543,1.765433 -2.10545,3.708681 -1.2609,4.955771 l -3.0148,3.014802 v -7.482231 l 3.72845,-3.728972 c 1.24851,0.807943 3.16767,0.455377 4.91288,-1.289843 1.95039,-1.950379 1.34875,-5.714379 1.34875,-5.714379 0,0 -3.764,-0.601109 -5.71438,1.349272 -1.76526,1.765266 -2.10514,3.707633 -1.2609,4.954736 l -3.0148,3.014803 V 69.57677 c 1.46656,-0.29821 2.58693,-1.90857 2.58692,-4.390946 1e-5,-2.758263 -3.08664,-4.994526 -3.08664,-4.994526 z"
       style="color:#000000;font-style:normal;font-variant:normal;font-weight:normal;font-stretch:normal;font-size:medium;line-height:normal;font-family:sans-serif;font-variant-ligatures:normal;font-variant-position:normal;font-variant-caps:normal;font-variant-numeric:normal;font-variant-alternates:normal;font-feature-settings:normal;text-indent:0;text-align:start;text-decoration:none;text-decoration-line:none;text-decoration-style:solid;text-decoration-color:#000000;letter-spacing:normal;word-spacing:normal;text-transform:none;writing-mode:lr-tb;direction:ltr;text-orientation:mixed;dominant-baseline:auto;baseline-shift:baseline;text-anchor:start;white-space:normal;shape-padding:0;clip-rule:nonzero;display:inline;overflow:visible;visibility:visible;opacity:1;isolation:auto;mix-blend-mode:normal;color-interpolation:sRGB;color-interpolation-filters:linearRGB;solid-color:#000000;solid-opacity:1;vector-effect:none;fill:#000000;fill-opacity:1;fill-rule:nonzero;stroke:none;stroke-width:1;stroke-linecap:butt;stroke-linejoin:miter;stroke-miterlimit:4;stroke-dasharray:none;stroke-dashoffset:0;stroke-opacity:1;color-rendering:auto;image-rendering:auto;shape-rendering:auto;text-rendering:auto;enable-background:accumulate" />
  </g>
</svg>
