<?xml version="1.0" encoding="UTF-8" standalone="no"?>
<svg
   xmlns:dc="http://purl.org/dc/elements/1.1/"
   xmlns:cc="http://creativecommons.org/ns#"
   xmlns:rdf="http://www.w3.org/1999/02/22-rdf-syntax-ns#"
   xmlns:svg="http://www.w3.org/2000/svg"
   xmlns="http://www.w3.org/2000/svg"
   width="52.916672mm"
   height="52.916672mm"
   viewBox="0 0 52.916672 52.916672"
   version="1.1"
   id="svg4562">
  <defs
     id="defs4556" />
  <metadata
     id="metadata4559">
    <rdf:RDF>
      <cc:Work
         rdf:about="">
        <dc:format>image/svg+xml</dc:format>
        <dc:type
           rdf:resource="http://purl.org/dc/dcmitype/StillImage" />
        <dc:title></dc:title>
      </cc:Work>
    </rdf:RDF>
  </metadata>
  <path
     id="rect4502"
     d="M 5.2916715,0.18915533 V 52.538931 H 33.337504 v -9.93376 h 4.120163 c 0,0 1.617313,0.0074 3.24838,-0.80822 1.631069,-0.815941 3.298507,-2.549607 3.298507,-5.738667 V 23.207389 h 0.789099 c 1.779889,0 3.212724,-1.432835 3.212724,-3.212724 0,-0.167669 -0.0163,-0.330832 -0.04082,-0.491442 h 0.04082 V 16.252774 H 46.356348 V 11.18745 h -0.99994 v 5.065324 H 41.592816 V 11.18745 h -0.99994 v 5.065324 h -1.657781 v 3.250449 h 0.04134 c -0.02453,0.160618 -0.04134,0.323763 -0.04134,0.491442 0,1.779889 1.432835,3.212724 3.212724,3.212724 h 0.856795 v 12.850895 c 0,2.85556 -1.353341,4.147428 -2.746084,4.844147 -1.392743,0.696723 -2.800863,0.7028 -2.800863,0.7028 H 33.337504 V 0.18915533 Z M 15.146368,6.3965293 h 8.285282 c 2.295043,0 4.142898,1.847342 4.142898,4.1423827 v 6.013585 c 0,2.295041 -1.847855,4.142901 -4.142898,4.142901 h -8.285282 c -2.295046,0 -4.142383,-1.84786 -4.142383,-4.142901 v -6.013585 c 0,-2.2950407 1.847337,-4.1423827 4.142383,-4.1423827 z m 4.745964,21.4457197 -0.06821,6.886916 h 4.249354 l -5.483387,9.498129 v -6.495211 h -4.407482 z"
     style="opacity:1;fill:#000000;fill-opacity:1;stroke:none;stroke-width:2.30548048;stroke-linecap:round;stroke-linejoin:miter;stroke-miterlimit:4;stroke-dasharray:none;stroke-dashoffset:0;stroke-opacity:1;paint-order:normal" />
  <path
     id="path2117"
     d="m 32.678824,42.021222 h 6.831761 c 0,0 4.12297,0.29673 4.12297,-4.122978 0,-3.596661 0,-15.749192 0,-15.749192"
     style="fill:none;stroke:#000000;stroke-width:2;stroke-linecap:butt;stroke-linejoin:miter;stroke-miterlimit:4;stroke-dasharray:none;stroke-opacity:1" />
  <path
     id="path2119"
     d="m 41.122043,11.187452 v 5.06532"
     style="fill:none;stroke:#000000;stroke-width:2;stroke-linecap:butt;stroke-linejoin:miter;stroke-miterlimit:4;stroke-dasharray:none;stroke-opacity:1" />
  <path
     style="fill:none;stroke:#000000;stroke-width:2;stroke-linecap:butt;stroke-linejoin:miter;stroke-miterlimit:4;stroke-dasharray:none;stroke-opacity:1"
     d="m 45.884548,11.187452 v 5.06532"
     id="path2121" />
</svg>
