<svg xmlns="http://www.w3.org/2000/svg" xmlns:xlink="http://www.w3.org/1999/xlink" viewBox="0 0 31 31" version="1.1" x="0px" y="0px"><title>open-icon@1x</title><desc>Created with Sketch.</desc><g stroke="none" stroke-width="1" fill="none" fill-rule="evenodd"><g transform="translate(-1208.000000, -3032.000000)" fill="#000000"><g transform="translate(-14.000000, -75.000000)"><g transform="translate(307.000000, 2555.000000)"><g transform="translate(0.000000, 237.000000)"><g transform="translate(915.000000, 315.000000)"><path d="M30.5773846,0.855923077 C30.6696923,1.07746154 30.6789231,1.31515385 30.6512308,1.55053846 L30.6512308,13.4097692 C30.6512308,14.1736154 30.0327692,14.7943846 29.2666154,14.7943846 C28.5027692,14.7943846 27.882,14.1736154 27.882,13.4097692 L27.882,4.76053846 L18.3673846,14.2751538 C17.8273846,14.8151538 16.9504615,14.8151538 16.4081538,14.2751538 C15.8681538,13.7351538 15.8681538,12.8582308 16.4081538,12.3159231 L25.9573846,2.769 L17.2735385,2.769 C16.5096923,2.769 15.8889231,2.15053846 15.8889231,1.38438462 C15.8889231,0.620538462 16.5096923,-0.000230769231 17.2735385,-0.000230769231 L29.2989231,-0.000230769231 C29.3035385,-0.000230769231 29.3104615,0.00207692308 29.3150769,0.00207692308 C29.4904615,0.00438461538 29.6635385,0.039 29.8273846,0.105923077 C30.1666154,0.246692308 30.4366154,0.516692308 30.5773846,0.855923077 Z M25.3433077,15.9223846 C26.1002308,15.9223846 26.7233077,16.5454615 26.7256154,17.3023846 L26.7256154,28.4231538 C26.7233077,28.6146923 26.691,29.2885385 26.181,29.8793077 C25.5348462,30.6316154 24.6279231,30.6639231 24.4825385,30.6662308 L2.241,30.6662308 C2.09792308,30.6616154 1.12869231,30.6223846 0.487153846,29.8146923 C0.0371538462,29.2493077 0.00253846154,28.6331538 0.000230769231,28.4231538 L0.000230769231,6.18161538 C0.000230769231,5.82623077 0.150230769,5.05084615 0.750230769,4.51084615 C1.21407692,4.09084615 1.80023077,3.97084615 2.241,3.94084615 L13.3617692,3.94084615 C14.121,3.94315385 14.7417692,4.56623077 14.7440769,5.32084615 C14.7440769,6.08007692 14.1233077,6.70546154 13.3617692,6.70776923 L2.77176923,6.71238462 L2.77176923,27.8923846 L23.9517692,27.8923846 C23.9540769,24.3639231 23.9540769,20.8331538 23.9563846,17.3023846 C23.9586923,16.5431538 24.5863846,15.9200769 25.3433077,15.9223846 Z"></path></g></g></g></g></g></g></svg>