<?xml version="1.0" encoding="UTF-8" standalone="no"?>
<svg
   xmlns:dc="http://purl.org/dc/elements/1.1/"
   xmlns:cc="http://creativecommons.org/ns#"
   xmlns:rdf="http://www.w3.org/1999/02/22-rdf-syntax-ns#"
   xmlns:svg="http://www.w3.org/2000/svg"
   xmlns="http://www.w3.org/2000/svg"
   id="svg4562"
   version="1.1"
   viewBox="0 0 26.458336 26.458336"
   height="26.458336mm"
   width="26.458336mm">
  <defs
     id="defs4556" />
  <metadata
     id="metadata4559">
    <rdf:RDF>
      <cc:Work
         rdf:about="">
        <dc:format>image/svg+xml</dc:format>
        <dc:type
           rdf:resource="http://purl.org/dc/dcmitype/StillImage" />
        <dc:title></dc:title>
      </cc:Work>
    </rdf:RDF>
  </metadata>
  <g
     transform="translate(219.11646,-54.596653)"
     id="layer1">
    <path
       id="path1693"
       transform="matrix(0.26458333,0,0,0.26458333,-219.11646,54.596653)"
       d="M 42.746094 2.8242188 C 34.251946 2.8242188 29.453459 7.3907691 27.220703 11.806641 C 24.987909 16.222512 24.962891 20.583984 24.962891 20.583984 L 24.962891 20.591797 L 24.962891 61.960938 L 28.742188 61.960938 L 28.742188 20.628906 C 28.742188 20.628906 28.810481 17.042277 30.595703 13.511719 C 32.380812 9.98116 35.526138 6.6035156 42.746094 6.6035156 L 99.349609 6.6035156 L 99.349609 2.8242188 L 42.746094 2.8242188 z M 80.246094 14.539062 C 71.751984 14.539062 66.953497 19.10757 64.720703 23.523438 C 62.487947 27.939309 62.462891 32.298828 62.462891 32.298828 L 62.462891 32.306641 L 62.462891 47.675781 L 66.242188 47.675781 L 66.242188 32.34375 C 66.242188 32.34375 66.310519 28.759074 68.095703 25.228516 C 69.88085 21.697961 73.026138 18.318359 80.246094 18.318359 L 98.847656 18.318359 L 98.847656 14.539062 L 80.246094 14.539062 z M 48.767578 54.427734 C 48.767578 54.427734 49.415953 76.40796 46.619141 86.845703 C 45.930162 89.416904 43.876765 92.897732 42.074219 95.642578 C 41.102926 94.053338 40.176953 92.322968 39.8125 90.962891 C 37.890157 83.78903 38.173828 68.681641 38.173828 68.681641 L 16.695312 68.681641 C 16.695312 68.681641 17.140791 83.787878 15.21875 90.960938 C 14.318202 94.321848 10 100 10 100 L 39.025391 100 L 45.03125 100 L 90 100 C 90 100 83.716348 91.73884 82.40625 86.849609 C 79.609022 76.410698 80.021484 54.427734 80.021484 54.427734 L 48.767578 54.427734 z "
       style="opacity:1;fill:#000000;fill-opacity:1;stroke:none;stroke-width:3.36241913;stroke-linecap:round;stroke-linejoin:round;stroke-miterlimit:4;stroke-dasharray:none;stroke-dashoffset:0;stroke-opacity:1;paint-order:normal" />
  </g>
</svg>
