<?xml version="1.0" encoding="UTF-8" standalone="no"?>
<svg
   xmlns:dc="http://purl.org/dc/elements/1.1/"
   xmlns:cc="http://creativecommons.org/ns#"
   xmlns:rdf="http://www.w3.org/1999/02/22-rdf-syntax-ns#"
   xmlns:svg="http://www.w3.org/2000/svg"
   xmlns="http://www.w3.org/2000/svg"
   id="svg1389"
   version="1.1"
   viewBox="0 0 26.458336 26.458336"
   height="26.458336mm"
   width="26.458336mm">
  <defs
     id="defs1383" />
  <metadata
     id="metadata1386">
    <rdf:RDF>
      <cc:Work
         rdf:about="">
        <dc:format>image/svg+xml</dc:format>
        <dc:type
           rdf:resource="http://purl.org/dc/dcmitype/StillImage" />
        <dc:title></dc:title>
      </cc:Work>
    </rdf:RDF>
  </metadata>
  <g
     transform="translate(37.419644,-94.782737)"
     id="layer1">
    <path
       id="path1315"
       transform="matrix(0.26458333,0,0,0.26458333,-37.419644,94.782737)"
       d="M 82.335938 0.50195312 A 11.964286 11.964286 0 0 0 70.371094 12.466797 A 11.964286 11.964286 0 0 0 71.337891 17.146484 L 27.078125 42.699219 A 11.964286 11.964286 0 0 0 17.513672 37.902344 A 11.964286 11.964286 0 0 0 5.5488281 49.867188 A 11.964286 11.964286 0 0 0 17.513672 61.832031 A 11.964286 11.964286 0 0 0 26.148438 58.128906 L 70.853516 83.939453 A 11.964286 11.964286 0 0 0 70.371094 87.267578 A 11.964286 11.964286 0 0 0 82.335938 99.232422 A 11.964286 11.964286 0 0 0 94.298828 87.267578 A 11.964286 11.964286 0 0 0 82.335938 75.304688 A 11.964286 11.964286 0 0 0 72.466797 80.503906 L 28.300781 55.009766 A 11.964286 11.964286 0 0 0 29.478516 49.867188 A 11.964286 11.964286 0 0 0 28.835938 46.044922 L 73.349609 20.34375 A 11.964286 11.964286 0 0 0 82.335938 24.429688 A 11.964286 11.964286 0 0 0 94.298828 12.466797 A 11.964286 11.964286 0 0 0 82.335938 0.50195312 z "
       style="opacity:1;fill:#000000;fill-opacity:1;stroke:none;stroke-width:2.83464575;stroke-linecap:round;stroke-linejoin:round;stroke-miterlimit:4;stroke-dasharray:none;stroke-dashoffset:0;stroke-opacity:1;paint-order:normal" />
  </g>
</svg>
