<?xml version="1.0" encoding="UTF-8" standalone="no"?>
<svg
   xmlns:dc="http://purl.org/dc/elements/1.1/"
   xmlns:cc="http://creativecommons.org/ns#"
   xmlns:rdf="http://www.w3.org/1999/02/22-rdf-syntax-ns#"
   xmlns:svg="http://www.w3.org/2000/svg"
   xmlns="http://www.w3.org/2000/svg"
   width="16"
   height="16"
   viewBox="0 0 16 16"
   version="1.1"
   id="svg4562">
  <defs
     id="defs4556" />
  <metadata
     id="metadata4559">
    <rdf:RDF>
      <cc:Work
         rdf:about="">
        <dc:format>image/svg+xml</dc:format>
        <dc:type
           rdf:resource="http://purl.org/dc/dcmitype/StillImage" />
        <dc:title></dc:title>
      </cc:Work>
    </rdf:RDF>
  </metadata>
  <g
     id="layer1"
     transform="matrix(0.59230414,0,0,0.59230414,128.85326,-34.048355)">
    <path
       id="path6166"
       d="m -203.18857,61.68807 -6.35418,11.00576 h 4.90463 v 7.22818 l 6.10247,-10.56981 h -4.72922 z"
       style="fill:#000000;fill-opacity:1;stroke:none;stroke-width:0.30210331px;stroke-linecap:butt;stroke-linejoin:miter;stroke-opacity:1" />
    <path
       style="color:#000000;font-style:normal;font-variant:normal;font-weight:normal;font-stretch:normal;font-size:medium;line-height:normal;font-family:sans-serif;font-variant-ligatures:normal;font-variant-position:normal;font-variant-caps:normal;font-variant-numeric:normal;font-variant-alternates:normal;font-feature-settings:normal;text-indent:0;text-align:start;text-decoration:none;text-decoration-line:none;text-decoration-style:solid;text-decoration-color:#000000;letter-spacing:normal;word-spacing:normal;text-transform:none;writing-mode:lr-tb;direction:ltr;text-orientation:mixed;dominant-baseline:auto;baseline-shift:baseline;text-anchor:start;white-space:normal;shape-padding:0;clip-rule:nonzero;display:inline;overflow:visible;visibility:visible;opacity:1;isolation:auto;mix-blend-mode:normal;color-interpolation:sRGB;color-interpolation-filters:linearRGB;solid-color:#000000;solid-opacity:1;vector-effect:none;fill:#000000;fill-opacity:1;fill-rule:nonzero;stroke:none;stroke-width:1;stroke-linecap:round;stroke-linejoin:miter;stroke-miterlimit:4;stroke-dasharray:none;stroke-dashoffset:0;stroke-opacity:1;paint-order:normal;color-rendering:auto;image-rendering:auto;shape-rendering:auto;text-rendering:auto;enable-background:accumulate"
       d="m -204.03919,58.02037 c -4.30782,0 -8.12127,2.11121 -10.4805,5.34852 v -4.84674 h -0.99994 v 6.33243 h 6.33191 v -1.00045 h -4.46174 c 2.18041,-2.93321 5.66983,-4.83382 9.61027,-4.83382 6.61727,10e-6 11.97084,5.35354 11.97084,11.97085 0,6.61728 -5.35357,11.97084 -11.97084,11.97084 -6.61729,0 -11.97084,-5.35356 -11.97085,-11.97084 0,-1.34503 0.22451,-2.63641 0.63252,-3.84267 h -1.05265 c -0.37682,1.21449 -0.57981,2.5051 -0.57981,3.84267 1e-5,7.15772 5.81305,12.970781 12.97079,12.970781 7.15771,0 12.97078,-5.813061 12.97078,-12.970781 0,-7.15774 -5.81307,-12.97078 -12.97078,-12.97079 z"
       id="path6168" />
  </g>
</svg>
