<?xml version="1.0" encoding="UTF-8" standalone="no"?>
<svg
   xmlns:dc="http://purl.org/dc/elements/1.1/"
   xmlns:cc="http://creativecommons.org/ns#"
   xmlns:rdf="http://www.w3.org/1999/02/22-rdf-syntax-ns#"
   xmlns:svg="http://www.w3.org/2000/svg"
   xmlns="http://www.w3.org/2000/svg"
   id="svg4562"
   version="1.1"
   viewBox="0 0 52.916672 52.916672"
   height="52.916672mm"
   width="52.916672mm">
  <defs
     id="defs4556" />
  <metadata
     id="metadata4559">
    <rdf:RDF>
      <cc:Work
         rdf:about="">
        <dc:format>image/svg+xml</dc:format>
        <dc:type
           rdf:resource="http://purl.org/dc/dcmitype/StillImage" />
        <dc:title></dc:title>
      </cc:Work>
    </rdf:RDF>
  </metadata>
  <path
     id="rect4423"
     transform="scale(0.26458334)"
     d="M 23.175781 33.244141 C 15.046354 33.244141 8.5000076 39.788568 8.5 47.917969 L 8.5 145.16602 C 8.5 153.29541 15.046354 159.83789 23.175781 159.83789 L 41.197266 159.83789 L 41.197266 170.5293 L 59.009766 170.5293 L 59.009766 159.83789 L 141.42383 159.83789 L 141.42383 170.5293 L 159.23438 170.5293 L 159.23438 159.83789 L 176.15625 159.83789 C 184.28565 159.83789 190.83203 153.29541 190.83203 145.16602 L 190.83203 47.917969 C 190.83203 39.788568 184.28565 33.244141 176.15625 33.244141 L 23.175781 33.244141 z M 134.10156 45.876953 L 177.0332 45.876953 L 177.0332 53.435547 L 174.54883 53.435547 L 136.11719 53.435547 L 134.10156 53.435547 L 134.10156 45.876953 z M 73.59375 48.140625 C 100.08688 48.140667 121.56345 69.618209 121.5625 96.111328 C 121.56245 122.60377 100.08616 144.08005 73.59375 144.08008 C 47.101337 144.08005 25.625038 122.60377 25.625 96.111328 C 25.624078 69.618209 47.100619 48.140667 73.59375 48.140625 z M 70.533203 54.982422 C 68.345791 55.014209 66.170374 55.352778 64.056641 56.083984 C 49.708398 61.342325 56.592945 74.616526 68.761719 89.078125 A 8.9487632 8.9487632 0 0 0 65.070312 96.306641 A 8.9487632 8.9487632 0 0 0 65.285156 98.203125 C 61.533745 101.65013 56.00828 105.878 52.162109 105.06445 C 45.833325 103.72559 37.189453 86.150391 37.189453 86.150391 C 37.189453 86.150391 30.871729 113.83119 44.392578 125.55078 C 56.198425 135.41257 64.27928 122.57886 70.740234 104.62305 A 8.9487632 8.9487632 0 0 0 74.019531 105.25391 A 8.9487632 8.9487632 0 0 0 79.837891 103.0918 C 84.739046 104.59326 91.506931 107.31523 92.759766 111.1582 C 94.764692 117.30855 83.865234 133.58203 83.865234 133.58203 C 83.865234 133.58203 110.99581 125.21374 114.38477 107.64453 C 117.03112 92.43977 101.76847 91.904437 82.902344 95.324219 A 8.9487632 8.9487632 0 0 0 77.328125 88 C 76.203933 83.017921 75.25875 76.00933 77.912109 73.056641 C 82.236002 68.245147 101.7793 69.546875 101.7793 69.546875 C 101.7793 69.546875 85.845087 54.759911 70.533203 54.982422 z M 134.10156 65.876953 L 177.0332 65.876953 L 177.0332 73.435547 L 134.10156 73.435547 L 134.10156 65.876953 z M 134.10156 85.876953 L 177.0332 85.876953 L 177.0332 93.435547 L 134.10156 93.435547 L 134.10156 85.876953 z "
     style="display:inline;opacity:1;fill:#000000;fill-opacity:1;stroke:none;stroke-width:7.59685469;stroke-linecap:round;stroke-linejoin:miter;stroke-miterlimit:4;stroke-dasharray:none;stroke-dashoffset:0;stroke-opacity:1;paint-order:normal" />
</svg>
