<?xml version="1.0" encoding="UTF-8" standalone="no"?>
<svg
   xmlns:dc="http://purl.org/dc/elements/1.1/"
   xmlns:cc="http://creativecommons.org/ns#"
   xmlns:rdf="http://www.w3.org/1999/02/22-rdf-syntax-ns#"
   xmlns:svg="http://www.w3.org/2000/svg"
   xmlns="http://www.w3.org/2000/svg"
   width="20"
   height="20"
   viewBox="0 0 20 20"
   version="1.1"
   id="svg4562">
  <defs
     id="defs4556" />
  <metadata
     id="metadata4559">
    <rdf:RDF>
      <cc:Work
         rdf:about="">
        <dc:format>image/svg+xml</dc:format>
        <dc:type
           rdf:resource="http://purl.org/dc/dcmitype/StillImage" />
        <dc:title></dc:title>
      </cc:Work>
    </rdf:RDF>
  </metadata>
  <g
     id="layer1"
     transform="matrix(0.74300795,0,0,0.74300795,167.45602,-37.095119)">
    <path
       style="color:#000000;font-style:normal;font-variant:normal;font-weight:normal;font-stretch:normal;font-size:medium;line-height:normal;font-family:sans-serif;font-variant-ligatures:normal;font-variant-position:normal;font-variant-caps:normal;font-variant-numeric:normal;font-variant-alternates:normal;font-feature-settings:normal;text-indent:0;text-align:start;text-decoration:none;text-decoration-line:none;text-decoration-style:solid;text-decoration-color:#000000;letter-spacing:normal;word-spacing:normal;text-transform:none;writing-mode:lr-tb;direction:ltr;text-orientation:mixed;dominant-baseline:auto;baseline-shift:baseline;text-anchor:start;white-space:normal;shape-padding:0;clip-rule:nonzero;display:inline;overflow:visible;visibility:visible;opacity:1;isolation:auto;mix-blend-mode:normal;color-interpolation:sRGB;color-interpolation-filters:linearRGB;solid-color:#000000;solid-opacity:1;vector-effect:none;fill:#000000;fill-opacity:1;fill-rule:nonzero;stroke:none;stroke-width:2;stroke-linecap:butt;stroke-linejoin:miter;stroke-miterlimit:4;stroke-dasharray:none;stroke-dashoffset:0;stroke-opacity:1;color-rendering:auto;image-rendering:auto;shape-rendering:auto;text-rendering:auto;enable-background:accumulate"
       d="m -221.59187,51.364732 c -2.21504,0.005 -3.51555,1.474846 -3.51555,1.474846 l 1.51929,1.298628 c 0,0 0.61298,-0.769829 2.00194,-0.773078 0.54294,-0.0011 0.95171,0.288952 1.67587,0.787032 0.72415,0.498081 1.7502,1.142566 3.17603,1.142566 1.42526,0 2.38576,-0.68177 3.02721,-1.164269 0.64145,-0.482492 0.96327,-0.765329 1.82624,-0.765329 0.86295,0 1.18479,0.282837 1.82625,0.765329 0.64145,0.482499 1.60196,1.164269 3.0272,1.164269 1.42526,0 2.45518,-0.640559 3.18379,-1.138949 0.7286,-0.49839 1.14329,-0.790649 1.66966,-0.790649 1.37641,0 1.92392,0.714685 1.92392,0.714685 l 1.52342,-1.295012 c 0,0 -1.26997,-1.420069 -3.44734,-1.420069 -1.25049,0 -2.11666,0.674415 -2.79879,1.141016 -0.68213,0.466601 -1.1917,0.788583 -2.05466,0.788583 -0.86294,0 -1.18479,-0.28076 -1.82624,-0.76326 -0.64145,-0.482491 -1.60196,-1.166339 -3.02721,-1.166339 -1.42526,0 -2.38575,0.683848 -3.0272,1.166339 -0.64145,0.4825 -0.96328,0.76326 -1.82625,0.76326 -0.86236,0 -1.36299,-0.320673 -2.04328,-0.788583 -0.6803,-0.46791 -1.55525,-1.143815 -2.8143,-1.141016 z m 0,6.703468 c -2.21504,0.005 -3.51555,1.472261 -3.51555,1.472261 l 1.51929,1.301213 c 0,0 0.61298,-0.770345 2.00194,-0.773597 0.54294,-0.0011 0.95171,0.288954 1.67587,0.787032 0.72415,0.498081 1.7502,1.142566 3.17603,1.142566 1.42526,0 2.38576,-0.683321 3.02721,-1.16582 0.64145,-0.482489 0.96327,-0.763778 1.82624,-0.763778 0.86295,0 1.18479,0.281289 1.82625,0.763778 0.64145,0.482499 1.60196,1.16582 3.0272,1.16582 1.42526,0 2.45518,-0.64004 3.18379,-1.13843 0.7286,-0.498391 1.14329,-0.791168 1.66966,-0.791168 1.37641,0 1.92392,0.714687 1.92392,0.714687 l 1.52342,-1.295014 c 0,0 -1.26997,-1.41955 -3.44734,-1.41955 -1.25049,0 -2.11666,0.673899 -2.79879,1.1405 -0.68213,0.466598 -1.1917,0.789098 -2.05466,0.789098 -0.86294,0 -1.18479,-0.281289 -1.82624,-0.763778 -0.64145,-0.482499 -1.60196,-1.16582 -3.02721,-1.16582 -1.42526,0 -2.38575,0.683321 -3.0272,1.16582 -0.64145,0.482489 -0.96328,0.763778 -1.82625,0.763778 -0.86236,0 -1.36299,-0.321191 -2.04328,-0.789098 -0.6803,-0.467911 -1.55525,-1.143291 -2.8143,-1.1405 z m 0,6.702949 c -2.21504,0.005 -3.51555,1.472779 -3.51555,1.472779 l 1.51929,1.300697 c 0,0 0.61298,-0.770347 2.00194,-0.773597 0.54294,-0.0011 0.95171,0.288952 1.67587,0.787033 0.72415,0.498078 1.7502,1.142566 3.17603,1.142566 1.42526,0 2.38576,-0.683332 3.02721,-1.165821 0.64145,-0.482502 0.96327,-0.763778 1.82624,-0.763778 0.86295,0 1.18479,0.281276 1.82625,0.763778 0.64145,0.482489 1.60196,1.165821 3.0272,1.165821 1.42526,0 2.45518,-0.640043 3.18379,-1.138434 0.7286,-0.49839 1.14329,-0.791165 1.66966,-0.791165 1.37641,0 1.92392,0.715201 1.92392,0.715201 l 1.52342,-1.295011 c 0,0 -1.26997,-1.420069 -3.44734,-1.420069 -1.25049,0 -2.11666,0.671833 -2.79879,1.138433 -0.68213,0.466601 -1.1917,0.791165 -2.05466,0.791165 -0.86294,0 -1.18479,-0.281276 -1.82624,-0.763778 -0.64145,-0.482489 -1.60196,-1.16582 -3.02721,-1.16582 -1.42526,0 -2.38575,0.683331 -3.0272,1.16582 -0.64145,0.482502 -0.96328,0.763778 -1.82625,0.763778 -0.86236,0 -1.36299,-0.323255 -2.04328,-0.791165 -0.6803,-0.46791 -1.55525,-1.141232 -2.8143,-1.138433 z m 0,6.702951 c -2.21504,0.005 -3.51555,1.472777 -3.51555,1.472777 l 1.51929,1.298631 c 0,0 0.61298,-0.767763 2.00194,-0.771015 0.54294,-0.0011 0.95171,0.288954 1.67587,0.787032 0.72415,0.498081 1.7502,1.142567 3.17603,1.142567 1.42526,0 2.38576,-0.683837 3.02721,-1.166337 0.64145,-0.482489 0.96327,-0.763262 1.82624,-0.763262 0.86295,0 1.18479,0.280773 1.82625,0.763262 0.64145,0.4825 1.60196,1.166337 3.0272,1.166337 1.42526,0 2.45518,-0.642626 3.18379,-1.141016 0.7286,-0.49838 1.14329,-0.78858 1.66966,-0.788583 1.37641,0 1.92392,0.714687 1.92392,0.714687 l 1.52342,-1.295011 c 0,0 -1.26997,-1.420069 -3.44734,-1.420069 -1.25049,0 -2.11666,0.672349 -2.79879,1.13895 -0.68213,0.466598 -1.1917,0.790649 -2.05466,0.790649 -0.86294,0 -1.18479,-0.280771 -1.82624,-0.763262 -0.64145,-0.4825 -1.60196,-1.166337 -3.02721,-1.166337 -1.42526,0 -2.38575,0.683837 -3.0272,1.166337 -0.64145,0.482491 -0.96328,0.763262 -1.82625,0.763262 -0.86236,0 -1.36299,-0.322742 -2.04328,-0.790649 -0.6803,-0.467911 -1.55525,-1.141741 -2.8143,-1.13895 z"
       id="path5730" />
  </g>
</svg>
