<?xml version="1.0" encoding="UTF-8" standalone="no"?>
<svg
   xmlns:dc="http://purl.org/dc/elements/1.1/"
   xmlns:cc="http://creativecommons.org/ns#"
   xmlns:rdf="http://www.w3.org/1999/02/22-rdf-syntax-ns#"
   xmlns:svg="http://www.w3.org/2000/svg"
   xmlns="http://www.w3.org/2000/svg"
   width="32"
   height="32"
   viewBox="0 0 32 32"
   version="1.1"
   id="svg4562">
  <defs
     id="defs4556" />
  <metadata
     id="metadata4559">
    <rdf:RDF>
      <cc:Work
         rdf:about="">
        <dc:format>image/svg+xml</dc:format>
        <dc:type
           rdf:resource="http://purl.org/dc/dcmitype/StillImage" />
        <dc:title></dc:title>
      </cc:Work>
    </rdf:RDF>
  </metadata>
  <path
     style="display:inline;opacity:1;fill:#000000;fill-opacity:1;stroke:none;stroke-width:1.28686714;stroke-linecap:round;stroke-linejoin:miter;stroke-miterlimit:4;stroke-dasharray:none;stroke-dashoffset:0;stroke-opacity:1;paint-order:normal"
     d="m 3.042957,4.3723091 c -1.377082,0 -2.48599858,1.1085914 -2.4859999,2.4856695 V 23.331286 c 0,1.377076 1.1089179,2.485337 2.4859999,2.485337 h 3.0527447 v 1.811068 H 9.1130453 V 25.816623 H 23.073554 v 1.811068 h 3.017013 v -1.811068 h 2.866476 c 1.377078,0 2.486,-1.108261 2.486,-2.485337 V 6.8579786 c 0,-1.3770781 -1.108922,-2.4856695 -2.486,-2.4856695 z M 21.8332,6.5122413 h 7.272393 V 7.7926264 H 28.684754 22.174637 21.8332 Z M 11.583496,6.8956949 c 4.487796,7.2e-6 8.125815,3.6381891 8.125654,8.1259841 -9e-6,4.48768 -3.63798,8.125649 -8.125654,8.125654 -4.4876758,-5e-6 -8.1256477,-3.637974 -8.1256541,-8.125654 -1.562e-4,-4.487795 3.6378567,-8.1259769 8.1256541,-8.1259841 z m -0.518441,1.1589639 c -0.370536,0.00539 -0.73904,0.062742 -1.0970961,0.1865998 -2.4305163,0.8907347 -1.2643098,3.1393144 0.7970161,5.5890324 a 1.5158734,1.5158734 0 0 0 -0.625304,1.224473 1.5158734,1.5158734 0 0 0 0.03639,0.321255 C 9.5405901,15.959923 8.6046059,16.676102 7.9530843,16.538291 6.8810216,16.311495 5.4167952,13.334349 5.4167952,13.334349 c 0,0 -1.0701891,4.688982 1.2201715,6.674218 1.9998478,1.670536 3.3687023,-0.503427 4.4631543,-3.545047 a 1.5158734,1.5158734 0 0 0 0.555495,0.106864 1.5158734,1.5158734 0 0 0 0.9856,-0.36625 c 0.83023,0.254339 1.976674,0.715427 2.188898,1.366406 0.339624,1.041837 -1.506687,3.798478 -1.506687,3.798478 0,0 4.595776,-1.417543 5.169848,-4.393675 0.448278,-2.575606 -2.137135,-2.66629 -5.332957,-2.086996 a 1.5158734,1.5158734 0 0 0 -0.944243,-1.240684 c -0.190432,-0.843938 -0.350542,-2.031157 0.09893,-2.531326 0.732444,-0.815042 4.042977,-0.594536 4.042977,-0.594536 0,0 -2.699172,-2.504834 -5.292925,-2.4671422 z M 21.8332,9.9001348 h 7.272393 V 11.180521 H 21.8332 Z m 0,3.3878952 h 7.272393 v 1.280386 H 21.8332 Z"
     id="rect4423" />
</svg>
