<?xml version="1.0" encoding="UTF-8" standalone="no"?>
<svg
   xmlns:dc="http://purl.org/dc/elements/1.1/"
   xmlns:cc="http://creativecommons.org/ns#"
   xmlns:rdf="http://www.w3.org/1999/02/22-rdf-syntax-ns#"
   xmlns:svg="http://www.w3.org/2000/svg"
   xmlns="http://www.w3.org/2000/svg"
   width="20"
   height="20"
   viewBox="0 0 20 20"
   version="1.1"
   id="svg4562">
  <defs
     id="defs4556" />
  <metadata
     id="metadata4559">
    <rdf:RDF>
      <cc:Work
         rdf:about="">
        <dc:format>image/svg+xml</dc:format>
        <dc:type
           rdf:resource="http://purl.org/dc/dcmitype/StillImage" />
        <dc:title></dc:title>
      </cc:Work>
    </rdf:RDF>
  </metadata>
  <g
     id="layer1"
     transform="matrix(0.74175792,0,0,0.74175792,177.92196,-44.613476)">
    <path
       style="color:#000000;font-style:normal;font-variant:normal;font-weight:normal;font-stretch:normal;font-size:medium;line-height:normal;font-family:sans-serif;font-variant-ligatures:normal;font-variant-position:normal;font-variant-caps:normal;font-variant-numeric:normal;font-variant-alternates:normal;font-feature-settings:normal;text-indent:0;text-align:start;text-decoration:none;text-decoration-line:none;text-decoration-style:solid;text-decoration-color:#000000;letter-spacing:normal;word-spacing:normal;text-transform:none;writing-mode:lr-tb;direction:ltr;text-orientation:mixed;dominant-baseline:auto;baseline-shift:baseline;text-anchor:start;white-space:normal;shape-padding:0;clip-rule:nonzero;display:inline;overflow:visible;visibility:visible;opacity:1;isolation:auto;mix-blend-mode:normal;color-interpolation:sRGB;color-interpolation-filters:linearRGB;solid-color:#000000;solid-opacity:1;vector-effect:none;fill:#000000;fill-opacity:1;fill-rule:nonzero;stroke:none;stroke-width:7.55905533;stroke-linecap:butt;stroke-linejoin:miter;stroke-miterlimit:4;stroke-dasharray:none;stroke-dashoffset:0;stroke-opacity:1;color-rendering:auto;image-rendering:auto;shape-rendering:auto;text-rendering:auto;enable-background:accumulate"
       d="m 32.40625,0 -7.558594,0.02148438 c 0.0076,3.26618452 -1.741633,5.67591922 -4.27539,9.35937502 -2.533796,3.6834556 -5.625,8.5861366 -5.625,15.5175786 0,6.929034 3.233028,11.429706 5.707031,14.71875 2.474003,3.289043 4.193359,5.369995 4.193359,10.173828 0,4.803783 -1.719356,6.882831 -4.193359,10.171875 -2.474003,3.289047 -5.707031,7.789746 -5.707031,14.71875 0,6.929 3.077268,11.855944 5.611328,15.560547 2.53406,3.704605 4.289062,6.1372 4.289062,9.324218 h 7.558594 c 0,-5.923835 -3.197419,-10.068688 -5.611328,-13.597656 -2.413909,-3.528968 -4.289063,-6.48333 -4.289063,-11.287109 0,-4.803787 1.719357,-6.890641 4.19336,-10.179688 2.474003,-3.289043 5.707031,-7.781933 5.707031,-14.710937 0,-6.929035 -3.233028,-11.431657 -5.707031,-14.720704 -2.474003,-3.289046 -4.19336,-5.368046 -4.19336,-10.171874 0,-4.801354 1.876995,-7.716486 4.296875,-11.234376 C 29.222615,10.146177 32.420877,5.9735962 32.40625,0 Z m 25.998047,0 -7.558594,0.02148438 c 0.0076,3.26618452 -1.739642,5.67591922 -4.273437,9.35937502 -2.533758,3.6834556 -5.625,8.5861366 -5.625,15.5175786 0,6.929034 3.238887,11.429706 5.71289,14.71875 2.474003,3.289043 4.185547,5.369995 4.185547,10.173828 0,4.803783 -1.711544,6.882831 -4.185547,10.171875 -2.474003,3.289047 -5.71289,7.789746 -5.71289,14.71875 0,6.929 3.075277,11.855944 5.609375,15.560547 2.534059,3.704605 4.289062,6.1372 4.289062,9.324218 h 7.558594 c 0,-5.923835 -3.195466,-10.068688 -5.609375,-13.597656 -2.413947,-3.528968 -4.289063,-6.48333 -4.289063,-11.287109 0,-4.803787 1.719357,-6.890641 4.19336,-10.179688 2.473965,-3.289043 5.705078,-7.781933 5.705078,-14.710937 0,-6.929035 -3.231113,-11.431657 -5.705078,-14.720704 -2.474003,-3.289046 -4.19336,-5.368046 -4.19336,-10.171874 0,-4.801354 1.876995,-7.716486 4.296875,-11.234376 C 55.222615,10.146177 58.418961,5.9735962 58.404297,0 Z m 26,0 -7.558594,0.02148438 c 0.0076,3.26618452 -1.741633,5.67591922 -4.275391,9.35937502 -2.533795,3.6834556 -5.617187,8.5861366 -5.617187,15.5175786 0,6.929034 3.233028,11.429706 5.707031,14.71875 2.473966,3.289043 4.185547,5.369995 4.185547,10.173828 0,4.803783 -1.711581,6.882831 -4.185547,10.171875 -2.474003,3.289047 -5.707031,7.789746 -5.707031,14.71875 0,6.929 3.069456,11.855944 5.603516,15.560547 2.534059,3.704605 4.289062,6.1372 4.289062,9.324218 h 7.558594 c 0,-5.923835 -3.197382,-10.068688 -5.611328,-13.597656 -2.413909,-3.528968 -4.28125,-6.48333 -4.28125,-11.287109 0,-4.803787 1.711543,-6.890641 4.185547,-10.179688 2.474003,-3.289043 5.707031,-7.781933 5.707031,-14.710937 0,-6.929035 -3.233028,-11.431657 -5.707031,-14.720704 -2.474004,-3.289046 -4.185547,-5.368046 -4.185547,-10.171874 0,-4.801354 1.869144,-7.716486 4.289062,-11.234376 C 81.220662,10.146177 84.418961,5.9735962 84.404297,0 Z"
       transform="matrix(0.26458333,0,0,0.26458333,-239.52717,60.455283)"
       id="path2650" />
  </g>
</svg>
