<?xml version="1.0" encoding="UTF-8" standalone="no"?>
<svg
   xmlns:dc="http://purl.org/dc/elements/1.1/"
   xmlns:cc="http://creativecommons.org/ns#"
   xmlns:rdf="http://www.w3.org/1999/02/22-rdf-syntax-ns#"
   xmlns:svg="http://www.w3.org/2000/svg"
   xmlns="http://www.w3.org/2000/svg"
   width="52.916672mm"
   height="52.916672mm"
   viewBox="0 0 52.916672 52.916672"
   version="1.1"
   id="svg4562">
  <defs
     id="defs4556" />
  <metadata
     id="metadata4559">
    <rdf:RDF>
      <cc:Work
         rdf:about="">
        <dc:format>image/svg+xml</dc:format>
        <dc:type
           rdf:resource="http://purl.org/dc/dcmitype/StillImage" />
        <dc:title></dc:title>
      </cc:Work>
    </rdf:RDF>
  </metadata>
  <path
     id="rect4423"
     d="m 6.1321175,8.7956528 c -2.150911,0 -3.882967,1.7315452 -3.882969,3.8824492 v 25.730213 c 0,2.150901 1.732058,3.881935 3.882969,3.881935 h 4.7681845 v 2.828766 h 4.712891 V 42.29025 h 21.805386 v 2.828766 h 4.712375 V 42.29025 h 4.477247 c 2.150904,0 3.882967,-1.731034 3.882967,-3.881935 V 12.678102 c 0,-2.150904 -1.732063,-3.8824492 -3.882967,-3.8824492 z M 35.481231,12.138085 h 11.358997 v 1.999877 H 46.182902 36.01453 35.481231 Z m -16.009357,0.598929 c 7.009642,1.1e-5 12.691979,5.68261 12.691728,12.692248 -1.3e-5,7.00946 -5.682277,12.691723 -12.691728,12.691731 C 12.462423,38.120985 6.7801485,32.438722 6.7801385,25.429262 6.7798945,18.419624 12.462233,12.737025 19.471874,12.737014 Z m 16.009357,4.692738 h 11.358997 v 1.999877 H 35.481231 Z m 0,5.291667 h 11.358997 v 1.999876 H 35.481231 Z"
     style="display:inline;opacity:1;fill:#000000;fill-opacity:1;stroke:none;stroke-width:2.01000118;stroke-linecap:round;stroke-linejoin:miter;stroke-miterlimit:4;stroke-dasharray:none;stroke-dashoffset:0;stroke-opacity:1;paint-order:normal" />
  <path
     id="path4439"
     d="m 19.343213,24.890829 c -3.88453,-4.31841 -6.62552,-8.501341 -2.3947,-10.051851 4.47407,-1.54772 9.980641,3.56172 9.980641,3.56172 0,0 -5.170711,-0.34437 -6.314741,0.928671 -1.14403,1.27309 0.23834,5.40256 0.23834,5.40256 z"
     style="display:inline;fill:#000000;fill-opacity:1;stroke:none;stroke-width:0.22245851px;stroke-linecap:butt;stroke-linejoin:miter;stroke-opacity:1" />
  <path
     style="display:inline;fill:#000000;fill-opacity:1;stroke:none;stroke-width:0.22245851px;stroke-linecap:butt;stroke-linejoin:miter;stroke-opacity:1"
     d="m 19.253433,26.118679 c -1.79759,5.523301 -4.04962,9.988531 -7.50781,7.099799 C 8.1682315,30.11767 9.8398515,22.794119 9.8398515,22.794119 c 0,0 2.2871205,4.650159 3.9616115,5.004399 1.67454,0.3542 4.55959,-2.907689 4.55959,-2.907689 z"
     id="path4441" />
  <path
     style="display:inline;fill:#000000;fill-opacity:1;stroke:none;stroke-width:0.22245851px;stroke-linecap:butt;stroke-linejoin:miter;stroke-opacity:1"
     d="m 20.361683,25.528899 c 5.68212,-1.20491 10.67514,-1.4872 9.902501,2.95204 -0.896662,4.64852 -8.074851,6.862641 -8.074851,6.862641 0,0 2.88358,-4.305792 2.35311,-5.933072 -0.53051,-1.627299 -4.79793,-2.49487 -4.79793,-2.49487 z"
     id="path4443" />
  <circle
     r="2.3676937"
     cy="25.480993"
     cx="19.584217"
     id="path4432"
     style="display:inline;opacity:1;fill:#000000;fill-opacity:1;stroke:none;stroke-width:1.85603976;stroke-linecap:round;stroke-linejoin:miter;stroke-miterlimit:4;stroke-dasharray:none;stroke-dashoffset:0;stroke-opacity:1;paint-order:normal" />
</svg>
