<?xml version="1.0" encoding="UTF-8" standalone="no"?>
<svg
   xmlns:dc="http://purl.org/dc/elements/1.1/"
   xmlns:cc="http://creativecommons.org/ns#"
   xmlns:rdf="http://www.w3.org/1999/02/22-rdf-syntax-ns#"
   xmlns:svg="http://www.w3.org/2000/svg"
   xmlns="http://www.w3.org/2000/svg"
   id="svg4562"
   version="1.1"
   viewBox="0 0 26.458336 26.458336"
   height="26.458336mm"
   width="26.458336mm">
  <defs
     id="defs4556" />
  <metadata
     id="metadata4559">
    <rdf:RDF>
      <cc:Work
         rdf:about="">
        <dc:format>image/svg+xml</dc:format>
        <dc:type
           rdf:resource="http://purl.org/dc/dcmitype/StillImage" />
        <dc:title></dc:title>
      </cc:Work>
    </rdf:RDF>
  </metadata>
  <g
     transform="translate(239.52717,-60.455283)"
     id="layer1">
    <path
       id="path2650"
       transform="matrix(0.26458333,0,0,0.26458333,-239.52717,60.455283)"
       d="M 32.40625 0 L 24.847656 0.021484375 C 24.855215 3.2876689 23.106023 5.6974036 20.572266 9.3808594 C 18.03847 13.064315 14.947266 17.966996 14.947266 24.898438 C 14.947266 31.827472 18.180294 36.328144 20.654297 39.617188 C 23.1283 42.906231 24.847656 44.987183 24.847656 49.791016 C 24.847656 54.594799 23.1283 56.673847 20.654297 59.962891 C 18.180294 63.251938 14.947266 67.752637 14.947266 74.681641 C 14.947266 81.610641 18.024534 86.537585 20.558594 90.242188 C 23.092654 93.946793 24.847656 96.379388 24.847656 99.566406 L 32.40625 99.566406 C 32.40625 93.642571 29.208831 89.497718 26.794922 85.96875 C 24.381013 82.439782 22.505859 79.48542 22.505859 74.681641 C 22.505859 69.877854 24.225216 67.791 26.699219 64.501953 C 29.173222 61.21291 32.40625 56.72002 32.40625 49.791016 C 32.40625 42.861981 29.173222 38.359359 26.699219 35.070312 C 24.225216 31.781266 22.505859 29.702266 22.505859 24.898438 C 22.505859 20.097084 24.382854 17.181952 26.802734 13.664062 C 29.222615 10.146177 32.420877 5.9735962 32.40625 0 z M 58.404297 0 L 50.845703 0.021484375 C 50.853262 3.2876689 49.106061 5.6974036 46.572266 9.3808594 C 44.038508 13.064315 40.947266 17.966996 40.947266 24.898438 C 40.947266 31.827472 44.186153 36.328144 46.660156 39.617188 C 49.134159 42.906231 50.845703 44.987183 50.845703 49.791016 C 50.845703 54.594799 49.134159 56.673847 46.660156 59.962891 C 44.186153 63.251938 40.947266 67.752637 40.947266 74.681641 C 40.947266 81.610641 44.022543 86.537585 46.556641 90.242188 C 49.0907 93.946793 50.845703 96.379388 50.845703 99.566406 L 58.404297 99.566406 C 58.404297 93.642571 55.208831 89.497718 52.794922 85.96875 C 50.380975 82.439782 48.505859 79.48542 48.505859 74.681641 C 48.505859 69.877854 50.225216 67.791 52.699219 64.501953 C 55.173184 61.21291 58.404297 56.72002 58.404297 49.791016 C 58.404297 42.861981 55.173184 38.359359 52.699219 35.070312 C 50.225216 31.781266 48.505859 29.702266 48.505859 24.898438 C 48.505859 20.097084 50.382854 17.181952 52.802734 13.664062 C 55.222615 10.146177 58.418961 5.9735962 58.404297 0 z M 84.404297 0 L 76.845703 0.021484375 C 76.853262 3.2876689 75.10407 5.6974036 72.570312 9.3808594 C 70.036517 13.064315 66.953125 17.966996 66.953125 24.898438 C 66.953125 31.827472 70.186153 36.328144 72.660156 39.617188 C 75.134122 42.906231 76.845703 44.987183 76.845703 49.791016 C 76.845703 54.594799 75.134122 56.673847 72.660156 59.962891 C 70.186153 63.251938 66.953125 67.752637 66.953125 74.681641 C 66.953125 81.610641 70.022581 86.537585 72.556641 90.242188 C 75.0907 93.946793 76.845703 96.379388 76.845703 99.566406 L 84.404297 99.566406 C 84.404297 93.642571 81.206915 89.497718 78.792969 85.96875 C 76.37906 82.439782 74.511719 79.48542 74.511719 74.681641 C 74.511719 69.877854 76.223262 67.791 78.697266 64.501953 C 81.171269 61.21291 84.404297 56.72002 84.404297 49.791016 C 84.404297 42.861981 81.171269 38.359359 78.697266 35.070312 C 76.223262 31.781266 74.511719 29.702266 74.511719 24.898438 C 74.511719 20.097084 76.380863 17.181952 78.800781 13.664062 C 81.220662 10.146177 84.418961 5.9735962 84.404297 0 z "
       style="color:#000000;font-style:normal;font-variant:normal;font-weight:normal;font-stretch:normal;font-size:medium;line-height:normal;font-family:sans-serif;font-variant-ligatures:normal;font-variant-position:normal;font-variant-caps:normal;font-variant-numeric:normal;font-variant-alternates:normal;font-feature-settings:normal;text-indent:0;text-align:start;text-decoration:none;text-decoration-line:none;text-decoration-style:solid;text-decoration-color:#000000;letter-spacing:normal;word-spacing:normal;text-transform:none;writing-mode:lr-tb;direction:ltr;text-orientation:mixed;dominant-baseline:auto;baseline-shift:baseline;text-anchor:start;white-space:normal;shape-padding:0;clip-rule:nonzero;display:inline;overflow:visible;visibility:visible;opacity:1;isolation:auto;mix-blend-mode:normal;color-interpolation:sRGB;color-interpolation-filters:linearRGB;solid-color:#000000;solid-opacity:1;vector-effect:none;fill:#000000;fill-opacity:1;fill-rule:nonzero;stroke:none;stroke-width:7.55905533;stroke-linecap:butt;stroke-linejoin:miter;stroke-miterlimit:4;stroke-dasharray:none;stroke-dashoffset:0;stroke-opacity:1;color-rendering:auto;image-rendering:auto;shape-rendering:auto;text-rendering:auto;enable-background:accumulate" />
  </g>
</svg>
