<?xml version="1.0" encoding="UTF-8" standalone="no"?>
<svg
   xmlns:dc="http://purl.org/dc/elements/1.1/"
   xmlns:cc="http://creativecommons.org/ns#"
   xmlns:rdf="http://www.w3.org/1999/02/22-rdf-syntax-ns#"
   xmlns:svg="http://www.w3.org/2000/svg"
   xmlns="http://www.w3.org/2000/svg"
   id="svg3006"
   version="1.1"
   viewBox="0 0 26.458336 26.458336"
   height="26.458336mm"
   width="26.458336mm">
  <defs
     id="defs3000" />
  <metadata
     id="metadata3003">
    <rdf:RDF>
      <cc:Work
         rdf:about="">
        <dc:format>image/svg+xml</dc:format>
        <dc:type
           rdf:resource="http://purl.org/dc/dcmitype/StillImage" />
        <dc:title></dc:title>
      </cc:Work>
    </rdf:RDF>
  </metadata>
  <g
     transform="translate(144.38691,-98.184523)"
     id="layer1">
    <path
       id="path2159"
       d="m -141.96277,101.49302 c -1.15149,0 -2.07896,0.92695 -2.07896,2.07843 v 14.83321 c 0,1.15146 0.92747,2.07791 2.07896,2.07791 h 2.55228 v 1.51464 h 2.52338 v -1.51464 h 11.67318 v 1.51464 h 2.52286 v -1.51464 h 2.39672 c 1.1515,0 2.07897,-0.92645 2.07897,-2.07791 v -14.83321 c 0,-1.15148 -0.92747,-2.07843 -2.07897,-2.07843 z m 8.19949,2.63912 c 3.75259,0 6.79453,3.04237 6.79442,6.79493 -2e-5,3.75251 -3.04191,6.79442 -6.79442,6.79443 -3.75248,-1e-5 -6.79442,-3.04192 -6.79442,-6.79443 -1.3e-4,-3.75256 3.04184,-6.79493 6.79442,-6.79493 z m -0.43357,0.96945 c -0.30983,0.004 -0.61786,0.0525 -0.91726,0.15606 -2.03165,0.74457 -1.05436,2.62396 0.66818,4.67156 -0.32896,0.23801 -0.52398,0.61922 -0.52451,1.02525 0,0.09 0.0106,0.17977 0.03,0.26768 -0.53139,0.48854 -1.31294,1.08842 -1.8583,0.97307 -0.89641,-0.18965 -2.1208,-2.6789 -2.1208,-2.6789 0,0 -0.89503,3.92052 1.0201,5.58054 1.67151,1.39626 2.81454,-0.4231 3.72949,-2.96468 0.14849,0.0591 0.30681,0.0896 0.46665,0.0899 0.3025,-5.2e-4 0.59486,-0.10921 0.82423,-0.30643 0.69424,0.21266 1.6529,0.5982 1.83038,1.14256 0.28398,0.87117 -1.25989,3.17656 -1.25989,3.17656 0,0 3.8427,-1.18563 4.32274,-3.6742 0.3747,-2.15278 -1.78787,-2.22575 -4.45863,-1.74202 -0.0506,-0.46609 -0.35428,-0.86621 -0.78962,-1.04024 -0.15939,-0.70576 -0.2934,-1.69817 0.0827,-2.11667 0.61246,-0.68153 3.38066,-0.49712 3.38066,-0.49712 0,0 -2.25724,-2.09443 -4.42608,-2.06293 z"
       style="display:inline;opacity:1;fill:#000000;fill-opacity:1;stroke:none;stroke-width:1.07604849;stroke-linecap:round;stroke-linejoin:miter;stroke-miterlimit:4;stroke-dasharray:none;stroke-dashoffset:0;stroke-opacity:1;paint-order:normal" />
  </g>
</svg>
