<?xml version="1.0" encoding="UTF-8" standalone="no"?>
<svg
   xmlns:dc="http://purl.org/dc/elements/1.1/"
   xmlns:cc="http://creativecommons.org/ns#"
   xmlns:rdf="http://www.w3.org/1999/02/22-rdf-syntax-ns#"
   xmlns:svg="http://www.w3.org/2000/svg"
   xmlns="http://www.w3.org/2000/svg"
   width="20"
   height="20"
   viewBox="0 0 20 20"
   version="1.1"
   id="svg4562">
  <defs
     id="defs4556" />
  <metadata
     id="metadata4559">
    <rdf:RDF>
      <cc:Work
         rdf:about="">
        <dc:format>image/svg+xml</dc:format>
        <dc:type
           rdf:resource="http://purl.org/dc/dcmitype/StillImage" />
        <dc:title></dc:title>
      </cc:Work>
    </rdf:RDF>
  </metadata>
  <g
     id="layer1"
     transform="matrix(0.73960179,0,0,0.73960179,179.02277,-36.023846)">
    <path
       style="opacity:1;fill:#111111;fill-opacity:1;stroke:none;stroke-width:1;stroke-linecap:round;stroke-linejoin:miter;stroke-miterlimit:4;stroke-dasharray:none;stroke-dashoffset:0;stroke-opacity:1;paint-order:normal"
       d="m -228.92844,49.123762 -0.9679,4.291727 -0.0295,2.962095 -2.95641,1.746663 -3.23288,2.984315 0.46303,0.8015 4.17959,-1.344105 2.11305,-1.220078 -0.72037,13.333034 c -0.47987,0.214691 -0.87032,0.499406 -1.21492,0.75861 -0.66062,0.496912 -1.16163,0.89452 -2.19935,0.89452 -1.03742,0 -1.69175,-0.418611 -2.40398,-0.908471 -0.71223,-0.48986 -1.48879,-1.082418 -2.59571,-1.080037 -2.06236,0.005 -3.21893,1.332217 -3.21893,1.332217 l 0.75965,0.648538 c 0,0 0.81149,-0.976947 2.46083,-0.980818 0.7489,-0.0021 1.29361,0.399389 2.02778,0.904338 0.73417,0.504949 1.65123,1.084172 2.97036,1.084172 1.31886,0 2.14025,-0.59863 2.80087,-1.095541 0.66062,-0.496909 1.16163,-0.892969 2.19935,-0.892969 1.0377,0 1.53872,0.39606 2.19934,0.892969 0.66061,0.496911 1.47995,1.095541 2.7988,1.095541 1.31886,0 2.24212,-0.577244 2.98018,-1.082106 0.73805,-0.504848 1.28557,-0.906404 2.01951,-0.906404 1.62971,0 2.38281,0.923975 2.38281,0.923975 l 0.76171,-0.648538 c 0,0 -1.11433,-1.275374 -3.14452,-1.275374 -1.09601,0 -1.87107,0.591076 -2.58588,1.080037 -0.71482,0.488961 -1.3761,0.908471 -2.41381,0.908471 -1.0377,0 -1.53874,-0.397608 -2.19935,-0.89452 -0.36248,-0.272655 -0.77652,-0.57241 -1.29088,-0.790133 l -0.71933,-13.301511 2.11305,1.220078 4.18062,1.344105 0.46251,-0.8015 -3.2334,-2.984315 -2.8944,-1.709457 v -2.999301 l -0.92604,-4.291727 z m 0.39687,7.641395 a 0.92343137,0.92343137 0 0 1 0.92294,0.92294 0.92343137,0.92343137 0 0 1 -0.92294,0.92346 0.92343137,0.92343137 0 0 1 -0.92397,-0.92346 0.92343137,0.92343137 0 0 1 0.92397,-0.92294 z"
       id="path5637" />
  </g>
</svg>
