<?xml version="1.0" encoding="UTF-8" standalone="no"?>
<!-- Created with Inkscape (http://www.inkscape.org/) -->

<svg
   xmlns:dc="http://purl.org/dc/elements/1.1/"
   xmlns:cc="http://creativecommons.org/ns#"
   xmlns:rdf="http://www.w3.org/1999/02/22-rdf-syntax-ns#"
   xmlns:svg="http://www.w3.org/2000/svg"
   xmlns="http://www.w3.org/2000/svg"
   xmlns:sodipodi="http://sodipodi.sourceforge.net/DTD/sodipodi-0.dtd"
   xmlns:inkscape="http://www.inkscape.org/namespaces/inkscape"
   version="1.0"
   width="32"
   height="47"
   id="svg2"
   xml:space="preserve"
   sodipodi:docname="WWF_Logo.svg"
   inkscape:version="0.92.3 (2405546, 2018-03-11)"><metadata
     id="metadata19"><rdf:RDF><cc:Work
         rdf:about=""><dc:format>image/svg+xml</dc:format><dc:type
           rdf:resource="http://purl.org/dc/dcmitype/StillImage" /></cc:Work></rdf:RDF></metadata><sodipodi:namedview
     pagecolor="#ffffff"
     bordercolor="#666666"
     borderopacity="1"
     objecttolerance="10"
     gridtolerance="10"
     guidetolerance="10"
     inkscape:pageopacity="0"
     inkscape:pageshadow="2"
     inkscape:window-width="1920"
     inkscape:window-height="1025"
     id="namedview17"
     showgrid="false"
     inkscape:zoom="20.085106"
     inkscape:cx="4.2233138"
     inkscape:cy="19.280315"
     inkscape:window-x="0"
     inkscape:window-y="0"
     inkscape:window-maximized="1"
     inkscape:current-layer="svg2" /><defs
     id="defs5" /><g
     transform="matrix(0.14501568,0,0,-0.14501568,-5.5010775,117.91371)"
     id="g11"><path
       d="m 115.78468,548.55159 c -1.97997,0 -3.62823,-1.25464 -4.27111,-2.95862 l -8.68256,-21.97364 -0.76949,-2.50066 -0.68743,2.54486 -6.724923,21.38247 c 0,0.0755 -0.0533,0.1513 -0.07777,0.1913 v 0.0445 0 c -0.6252,1.80187 -2.32216,3.06539 -4.291285,3.06539 v 0 H 79.439989 v 0 c -2.442386,-0.12442 -4.373152,-2.11774 -4.373152,-4.57379 0,-0.65372 0.311163,-1.5217 0.513854,-2.33574 l 1.416912,-4.47119 -5.312158,-13.37413 -0.841009,-2.47369 -0.68292,2.50066 -6.691165,21.42667 c -0.06925,0.0755 -0.06925,0.1513 -0.07786,0.1913 v 0.0445 c -0.638319,1.80187 -2.360382,3.06539 -4.295704,3.06539 v 0 h -10.85115 v 0 c -2.393593,-0.12442 -4.364452,-2.11774 -4.364452,-4.57379 0,-0.65372 0.255539,-1.5217 0.531714,-2.33574 l 16.230187,-48.37885 c 0.491484,-1.97536 2.315734,-3.43483 4.4178,-3.43483 2.055597,0 3.779481,1.33445 4.339849,3.19 l 11.369514,28.68313 0.84101,2.56266 0.67841,-2.52694 9.565446,-28.47402 c 0.493807,-1.97536 2.273866,-3.43483 4.426866,-3.43483 2.084298,0 3.808729,1.38826 4.398259,3.32764 l 19.23294,49.00673 c 0.28064,0.60967 0.46283,1.27673 0.46283,1.96648 0,2.55793 -2.0756,4.62674 -4.59133,4.62674 z"
       id="path97"
       style="fill:#231f20;fill-opacity:1;fill-rule:nonzero;stroke:none"
       inkscape:connector-curvature="0" /><path
       d="m 196.66409,548.55159 c -1.97542,0 -3.65703,-1.25464 -4.29985,-2.95862 l -8.63783,-21.97364 -0.83874,-2.50066 -0.62738,2.54486 -6.76264,21.38247 c 0,0.0755 0,0.1513 -0.0264,0.1913 v 0.0445 0 c -0.65198,1.80187 -2.36494,3.06539 -4.33811,3.06539 v 0 h -10.83785 v 0 c -2.42467,-0.12442 -4.35361,-2.11774 -4.35361,-4.57379 0,-0.65372 0.25385,-1.5217 0.53854,-2.33574 l 1.41272,-4.47119 -5.33033,-13.37413 -0.86972,-2.47369 -0.65827,2.50066 -6.67567,21.42667 c -0.0715,0.0755 -0.0715,0.1513 -0.11162,0.1913 v 0.0445 c -0.61595,1.80187 -2.31341,3.06539 -4.26431,3.06539 v 0 h -10.86478 v 0 c -2.46001,-0.12442 -4.38217,-2.11774 -4.38217,-4.57379 0,-0.65372 0.3093,-1.5217 0.52529,-2.33574 l 16.28112,-48.37885 c 0.48702,-1.97536 2.26243,-3.43483 4.39775,-3.43483 2.02239,0 3.75087,1.33445 4.36227,3.19 l 11.35857,28.68313 0.78543,2.56266 0.72074,-2.52694 9.53447,-28.47402 c 0.51344,-1.97536 2.30435,-3.43483 4.43556,-3.43483 2.07746,0 3.85521,1.38826 4.4178,3.32764 l 19.24206,49.00673 c 0.27836,0.60967 0.4406,1.27673 0.4406,1.96648 0,2.55793 -2.06197,4.62674 -4.57361,4.62674 z"
       id="path99"
       style="fill:#231f20;fill-opacity:1;fill-rule:nonzero;stroke:none"
       inkscape:connector-curvature="0" /><path
       d="m 249.18744,548.44498 c -0.062,0 -37.92138,0 -37.92138,0 v 0 c -2.19144,0 -3.94399,-1.757 -3.94399,-3.97319 v 0 l -0.007,-0.008 c 0,1.3e-4 0,-3.91529 0,-9.59246 0,-13.68074 0,-40.75329 0,-40.75329 0,-0.0401 0,0.0177 0,0 h 0.007 c 0.10428,-2.27805 1.97082,-4.129 4.25556,-4.129 v 0 c 6.79135,0 10.74865,0 10.74865,0 v 0 c 2.31337,0.058 4.13347,1.89573 4.1931,4.25328 0,-0.41361 0,23.51777 0,23.51777 -9e-5,0 15.39197,0.0448 15.46299,0.0448 2.25793,0.0177 4.07302,1.855 4.07302,4.16444 0,2.26016 -1.84835,4.14209 -4.16409,4.14209 -0.0492,0 -15.35183,0 -15.35183,0 l -0.0201,13.45399 c -9e-5,1.3e-4 22.79061,0 22.89083,0 2.35774,0.10661 4.23511,2.051 4.23511,4.44865 0,2.46074 -2.01318,4.43142 -4.45788,4.43142 z"
       id="path101"
       style="fill:#231f20;fill-opacity:1;fill-rule:nonzero;stroke:none"
       inkscape:connector-curvature="0" /><path
       d="m 190.382,708.96274 c 6.89617,-7.72803 7.62784,-30.72314 24.97703,-21.57364 10.42194,5.49015 10.27971,28.69229 -3.62831,37.07002 -11.24241,6.6447 -17.40879,-2.31796 -21.47761,-13.32939 -0.31572,-0.85896 -0.34255,-1.71996 0.12889,-2.16699 z"
       id="path103"
       style="fill:#231f20;fill-opacity:1;fill-rule:nonzero;stroke:none"
       inkscape:connector-curvature="0" /><path
       d="m 163.4406,712.63767 c -7.2451,-6.00373 -12.22149,-22.47862 -25.56196,-16.89069 -10.7645,5.48773 -11.80314,26.83021 6.76279,36.69807 12.94442,5.95035 19.51805,-5.84163 19.59549,-18.34583 0,-0.44018 -0.42683,-1.09672 -0.79632,-1.46155 z"
       id="path105"
       style="fill:#231f20;fill-opacity:1;fill-rule:nonzero;stroke:none"
       inkscape:connector-curvature="0" /><path
       d="m 181.33272,670.621 c 7.16274,0.73827 5.54993,7.37405 0.12028,9.04047 -4.84282,1.44335 -12.20602,2.38459 -17.39375,2.29128 -9.20964,-0.21367 -8.98043,-7.24752 -4.1891,-8.43569 3.6105,-1.21918 5.95548,-1.69077 9.08759,-5.72136 2.86289,-5.54811 1.58816,1.66839 12.37498,2.8253 z"
       id="path107"
       style="fill:#231f20;fill-opacity:1;fill-rule:nonzero;stroke:none"
       inkscape:connector-curvature="0" /><path
       d="m 215.11657,789.44634 c 9.00052,14.96694 24.63216,12.0703 32.49139,4.60282 8.61602,-8.10407 10.00373,-17.46952 6.69623,-24.05845 -4.5117,-8.83388 -16.01465,-19.57363 -23.50454,-9.18048 -3.30572,4.58222 -10.34404,10.06559 -14.17054,11.6497 -5.89016,2.48466 -7.01144,7.7991 -1.51254,16.98641 z"
       id="path109"
       style="fill:#231f20;fill-opacity:1;fill-rule:nonzero;stroke:none"
       inkscape:connector-curvature="0" /><path
       d="m 250.90959,723.42221 c -0.8032,2.64736 -2.1248,2.50472 -2.06704,0.31157 0.72535,-27.29263 -15.55135,-56.52966 -50.44774,-56.7257 -8.91169,-0.0177 -6.23736,-14.29928 -22.50354,-7.11837 -11.73179,7.90599 -18.44109,-7.67043 -26.792,9.09848 -1.81732,4.83598 -4.57816,6.75339 -8.13081,7.64087 -34.43356,8.53369 -45.415779,55.9318 -15.0689,94.20029 6.00642,-3.58122 8.20872,-4.13525 14.61509,1.73723 3.32121,3.08559 8.94039,6.49787 11.9969,7.61901 7.28529,2.78959 11.24751,5.89712 4.93863,19.81837 -8.10859,18.07001 -24.68775,12.96916 -32.27591,6.71585 -8.54221,-7.06301 -14.56416,-18.43689 -3.53492,-31.83066 -30.863104,-20.80398 -36.141959,-46.37273 -35.432157,-68.58456 0.733991,-23.63356 -5.318901,-21.62248 2.222339,-45.6766 0.676178,-2.09956 -0.809528,-2.0556 -1.935277,-1.37449 -32.168847,20.58789 -49.540273,83.36894 0.576269,117.98222 1.114359,1.01232 0.660688,2.32258 -3.454695,-0.0866 -43.382962,-22.94172 -47.369323,-67.379 -40.177425,-97.30773 3.521574,-14.49696 -1.826529,-17.16682 3.794925,-36.21289 12.911256,-39.69924 23.918172,-42.83124 39.465438,-43.98802 28.300483,0 9.107219,15.61192 10.148184,35.21894 0,1.14743 1.388256,1.69928 2.19136,-0.66292 15.576379,-34.92959 26.569679,-66.70496 67.518949,-63.74175 23.69585,3.0921 10.54217,14.85989 9.10525,21.53333 -17.44067,57.83299 24.85445,71.46963 12.88676,15.07787 -7.89719,-32.30045 17.07301,-29.06112 34.67128,-17.47602 18.14774,11.91484 40.83128,90.55164 27.68904,133.83228 v 0 m -68.95864,-68.41339 c -3.92163,-10.37037 -24.27167,-6.81595 -24.90589,3.22165 0,0.39988 0.54079,0.3155 0.7832,0.26224 9.06476,-2.12653 17.66939,-3.12352 23.51767,-3.10098 0.20911,0 0.69614,0.12415 0.60502,-0.38291 z"
       id="path111"
       style="fill:#231f20;fill-opacity:1;fill-rule:nonzero;stroke:none"
       inkscape:connector-curvature="0" /><path
       d="m 91.110234,584.90949 c 0,-4.19535 -3.419204,-7.57687 -7.590032,-7.57687 -4.175475,0 -7.563656,3.38152 -7.563656,7.57687 0,4.15556 3.388181,7.5545 7.563656,7.5545 4.170828,0 7.590032,-3.39894 7.590032,-7.5545 m -7.590032,9.06288 c -4.996392,0 -9.08526,-4.07547 -9.08526,-9.06288 0,-5.02273 4.088868,-9.10263 9.08526,-9.10263 5.031472,0 9.062436,4.0799 9.062436,9.10263 0,4.98741 -4.030964,9.06288 -9.062436,9.06288 z"
       id="path113"
       style="fill:#231f20;fill-opacity:1;fill-rule:nonzero;stroke:none"
       inkscape:connector-curvature="0" /><path
       d="m 86.116075,583.49052 c -0.17581,-1.09891 -1.103425,-1.86444 -2.360382,-1.86444 -1.741653,0 -2.85419,1.54412 -2.85419,3.30136 0,1.84647 0.996865,3.22097 2.845579,3.22097 1.223245,0 2.119788,-0.70711 2.368993,-1.78826 h 1.274815 c -0.225103,2.00626 -1.79327,3.12754 -3.683853,3.12754 -2.707582,0 -4.267048,-1.96661 -4.267048,-4.56025 0,-2.59383 1.690628,-4.57367 4.315704,-4.57367 1.841927,0 3.314831,1.18362 3.690734,3.13675 z"
       id="path115"
       style="fill:#231f20;fill-opacity:1;fill-rule:nonzero;stroke:none"
       inkscape:connector-curvature="0" /><path
       d="m 250.71368,563.22933 c 0,-4.18655 -3.41687,-7.58553 -7.58137,-7.58553 -4.22645,0 -7.61232,3.39898 -7.61232,7.58553 0,4.18212 3.38587,7.55881 7.61232,7.55881 4.1645,0 7.58137,-3.37669 7.58137,-7.55881 m -7.58137,9.08931 c -5.0583,0 -9.09164,-4.06618 -9.09164,-9.08931 0,-5.03663 4.03334,-9.07178 9.09164,-9.07178 4.9763,0 9.06062,4.03515 9.06062,9.07178 0,5.02313 -4.08432,9.08931 -9.06062,9.08931 z"
       id="path117"
       style="fill:#231f20;fill-opacity:1;fill-rule:nonzero;stroke:none"
       inkscape:connector-curvature="0" /><path
       d="m 241.55098,562.62427 h 1.47924 l 2.28662,-3.69702 h 1.42369 l -2.44922,3.79045 c 1.27473,0.16033 2.22918,0.82306 2.22918,2.32713 0,1.71235 -0.98775,2.44671 -3.01004,2.44671 h -3.29666 v -8.56429 h 1.33719 v 3.69702 m 0,1.12574 v 2.66458 h 1.74625 c 0.90981,0 1.87291,-0.23094 1.87291,-1.27246 0,-1.3344 -0.9631,-1.39212 -2.09104,-1.39212 z"
       id="path119"
       style="fill:#231f20;fill-opacity:1;fill-rule:nonzero;stroke:none"
       inkscape:connector-curvature="0" /></g></svg>