<?xml version="1.0" encoding="UTF-8" standalone="no"?>
<svg
   xmlns:dc="http://purl.org/dc/elements/1.1/"
   xmlns:cc="http://creativecommons.org/ns#"
   xmlns:rdf="http://www.w3.org/1999/02/22-rdf-syntax-ns#"
   xmlns:svg="http://www.w3.org/2000/svg"
   xmlns="http://www.w3.org/2000/svg"
   xmlns:sodipodi="http://sodipodi.sourceforge.net/DTD/sodipodi-0.dtd"
   xmlns:inkscape="http://www.inkscape.org/namespaces/inkscape"
   id="svg8"
   version="1.1"
   viewBox="0 0 20 20"
   height="20"
   width="20"
   sodipodi:docname="i_world.svg"
   inkscape:version="0.92.3 (2405546, 2018-03-11)">
  <sodipodi:namedview
     pagecolor="#ffffff"
     bordercolor="#666666"
     borderopacity="1"
     objecttolerance="10"
     gridtolerance="10"
     guidetolerance="10"
     inkscape:pageopacity="0"
     inkscape:pageshadow="2"
     inkscape:window-width="1920"
     inkscape:window-height="1025"
     id="namedview9"
     showgrid="false"
     units="px"
     inkscape:zoom="18.153845"
     inkscape:cx="-12.074154"
     inkscape:cy="6.2796614"
     inkscape:window-x="0"
     inkscape:window-y="0"
     inkscape:window-maximized="1"
     inkscape:current-layer="svg8" />
  <defs
     id="defs2" />
  <metadata
     id="metadata5">
    <rdf:RDF>
      <cc:Work
         rdf:about="">
        <dc:format>image/svg+xml</dc:format>
        <dc:type
           rdf:resource="http://purl.org/dc/dcmitype/StillImage" />
        <dc:title />
      </cc:Work>
    </rdf:RDF>
  </metadata>
  <g
     id="g17"
     transform="matrix(4.446503,0,0,4.446503,1.6410555e-5,-5.8823236)">
    <g
       id="layer1"
       transform="translate(315.25729,-327.63712)">
      <g
         style="fill:none"
         id="g826"
         transform="matrix(0.26458333,0,0,0.26458333,-315.07302,322.02699)">
        <path
           inkscape:connector-curvature="0"
           id="path815"
           d="m 8.5518179,28.203616 c 0.563535,0.502774 1.4712011,1.432655 2.1792111,2.740737 h 2.435813 C 12.633718,30.188504 11.947129,29.553684 11.151851,29.081401 10.356574,28.609109 9.4705909,28.310003 8.5518179,28.203616 Z m -1.559791,0.01157 C 6.0843595,28.327941 5.2101538,28.628925 4.4254366,29.098872 3.6407282,29.56881 2.9627502,30.197381 2.4348718,30.944353 h 2.390751 C 5.5276477,29.647871 6.4271697,28.721102 6.9920269,28.21519 Z m 0.412359,0.779702 c -0.445062,0.418592 -1.0534647,1.07797 -1.5891531,1.949461 h 1.5891531 z m 0.799509,0.04834 v 1.90112 h 1.53793 c -0.515317,-0.838884 -1.097804,-1.4808 -1.53793,-1.90112 z m -6.2483315,2.700656 c -0.4097769,0.804013 -0.6495941,1.683781 -0.7045019,2.584573 h 2.5721521 c 0.066685,-0.95615 0.2997584,-1.82043 0.6206108,-2.584573 z m 3.4225049,0 c -0.3560855,0.750119 -0.6251417,1.616083 -0.7016107,2.584573 h 2.7279283 v -2.584573 z m 2.8258266,0 v 2.584573 h 2.6759291 c -0.07651,-0.96849 -0.345278,-1.834454 -0.701223,-2.584573 z m 2.9089061,0 c 0.320774,0.764143 0.553926,1.628423 0.620655,2.584573 h 2.62833 c -0.05448,-0.900704 -0.293888,-1.780463 -0.703251,-2.584573 z M 1.2452789,35.12841 c 0.05422,0.901056 0.2934823,1.781221 0.7028447,2.585754 H 4.3194642 C 4.0316676,36.944802 3.8366562,36.080327 3.8075143,35.12841 Z m 3.4134168,0 c 0.033259,0.963201 0.2580199,1.828733 0.5776382,2.585754 h 2.168052 V 35.12841 Z m 3.5451992,0 v 2.585754 h 2.1160091 c 0.319627,-0.757021 0.544406,-1.622553 0.577638,-2.585754 z m 3.5448101,0 c -0.02909,0.951917 -0.223809,1.816392 -0.511526,2.585754 h 2.414304 c 0.40998,-0.804357 0.649833,-1.68461 0.704573,-2.585754 z M 2.4402401,38.514113 C 3.4285807,39.915148 4.9252925,40.874558 6.611048,41.187486 6.0189532,40.602443 5.250711,39.705883 4.6636584,38.514113 Z m 3.1865749,0 c 0.576986,1.034689 1.2854379,1.799026 1.7775709,2.258545 v -2.258545 z m 2.5770799,0 v 2.209359 c 0.48949,-0.464104 1.168146,-1.209841 1.72551,-2.209359 z m 2.6895051,0 c -0.592449,1.203229 -1.3690381,2.105078 -1.9630721,2.689504 1.7141391,-0.299618 3.2394651,-1.266872 4.2414511,-2.689504 z"
           style="fill:#000000;stroke-width:0.88148683" />
      </g>
      <rect
         style="opacity:1;fill:none;fill-opacity:0.3927711;stroke:none;stroke-width:0.79374999;stroke-linecap:round;stroke-linejoin:round;stroke-miterlimit:4;stroke-dasharray:none;stroke-dashoffset:0;stroke-opacity:1;paint-order:stroke fill markers"
         id="rect828"
         width="4.4979167"
         height="3.4395833"
         x="-315.25729"
         y="329.4892" />
    </g>
  </g>
</svg>
