<?xml version="1.0" encoding="UTF-8" standalone="no"?>
<svg
   xmlns:dc="http://purl.org/dc/elements/1.1/"
   xmlns:cc="http://creativecommons.org/ns#"
   xmlns:rdf="http://www.w3.org/1999/02/22-rdf-syntax-ns#"
   xmlns:svg="http://www.w3.org/2000/svg"
   xmlns="http://www.w3.org/2000/svg"
   xmlns:sodipodi="http://sodipodi.sourceforge.net/DTD/sodipodi-0.dtd"
   xmlns:inkscape="http://www.inkscape.org/namespaces/inkscape"
   id="flag-icons-kz"
   viewBox="0 0 20 20"
   version="1.1"
   sodipodi:docname="kz_small.svg"
   width="20"
   height="20"
   inkscape:version="0.92.3 (2405546, 2018-03-11)">
  <metadata
     id="metadata41">
    <rdf:RDF>
      <cc:Work
         rdf:about="">
        <dc:format>image/svg+xml</dc:format>
        <dc:type
           rdf:resource="http://purl.org/dc/dcmitype/StillImage" />
        <dc:title></dc:title>
      </cc:Work>
    </rdf:RDF>
  </metadata>
  <defs
     id="defs39" />
  <sodipodi:namedview
     pagecolor="#ffffff"
     bordercolor="#666666"
     borderopacity="1"
     objecttolerance="10"
     gridtolerance="10"
     guidetolerance="10"
     inkscape:pageopacity="0"
     inkscape:pageshadow="2"
     inkscape:window-width="1920"
     inkscape:window-height="1025"
     id="namedview37"
     showgrid="false"
     inkscape:zoom="15.733333"
     inkscape:cx="13.57795"
     inkscape:cy="10.116594"
     inkscape:window-x="0"
     inkscape:window-y="0"
     inkscape:window-maximized="1"
     inkscape:current-layer="flag-icons-kz" />
  <g
     id="g60"
     transform="matrix(0.03125,0,0,0.03125,0,16.875)">
    <g
       transform="translate(0,-460)"
       style="fill-rule:evenodd"
       id="g34">
      <path
         style="fill:#00abc2"
         inkscape:connector-curvature="0"
         id="path2"
         d="M 0,0 H 640 V 480 H 0 Z" />
      <g
         style="fill:#ffec2d"
         id="g16">
        <path
           inkscape:connector-curvature="0"
           id="path4"
           d="m 60.2,467 c 3.3,3.2 2.2,8.5 11.3,7.8 13.8,0 14.2,-8.4 14.2,-14.3 0,-5.9 -20.7,-14.1 -21.7,-22.8 -1,-8.7 4.8,-11 9.6,-11 4.7,0 8,2.7 8,5.1 0,2.4 -2.2,3.2 -5.6,3.2 -3.4,0 1.5,-1.7 -1.4,-3 -2.9,-1.3 -4.8,2 -4.8,4 0,2.2 7.2,2.8 12,1.3 1,4.7 1.4,5 -5.3,13 4.8,-3.1 5.2,-3.8 10.5,-2 -5.3,-4.6 -1.3,-13.8 -1.2,-16.1 0.1,-2.3 -1,-5.1 -3,-6.5 -3.9,-3.5 -12.2,-3.7 -17.2,-1.4 -7.3,3.2 -7.7,12.8 -5.8,16 L 80,460.7 c 1.4,2.4 2,9.2 -6.6,9.5 -9,0.7 -12.2,-11.6 -13.8,-15.7 -2.1,4.5 -4.5,16.8 -13.6,16.1 -8.6,-0.3 -10.2,-7 -8.8,-9.5 l 20.7,-21 c 2,-3.2 1.6,-12.8 -5.7,-16 -5,-2.3 -13.3,-2 -17.1,1.4 -2.2,1.4 -3.4,4.1 -3.2,6.5 0.2,2.4 4.1,11.5 -1.1,16 5.2,-1.7 5.7,-1 10.5,2 -6.7,-7.9 -6.2,-8.2 -5.3,-13 4.8,1.6 12,1 12,-1.1 0,-2.1 -2,-5.6 -4.9,-4.2 -2.8,1.4 2,3.1 -1.4,3.1 -3.3,0 -5.7,-0.7 -5.7,-3 0,-2.3 3.3,-5.3 8.1,-5.3 4.8,0 10.5,2.4 9.5,11.1 -1,8.7 -22,18.1 -22,24 0,6 1.4,13.1 15.2,13.1 9,0.7 10.1,-4.6 13.4,-7.8 z" />
        <path
           inkscape:connector-curvature="0"
           id="path6"
           d="m 59.1,343.3 c 3.3,-3.2 6,-12.6 15,-12 13.8,0 19,7.7 19,13.6 0,5.9 -28,54 -29,62.7 -1,8.7 4.8,11.1 9.5,11.1 4.8,0 8.1,-2.7 8.1,-5.2 0,-2.5 -2.4,-3 -5.7,-3 -3.3,0 1.4,1.7 -1.4,3 -2.8,1.3 -4.8,-2 -4.8,-4.1 0,-2.1 7.2,-2.8 12,-1.2 0.9,-4.7 1.3,-5 -5.3,-13 4.8,3 5.2,3.8 10.5,2 -5.3,4.6 -1.4,13.7 -1.2,16 0.2,2.3 -1,5.2 -3.1,6.6 -3.8,3.5 -12.2,3.6 -17.2,1.4 -7.2,-3.3 -7.6,-12.8 -5.7,-16 L 87,346.6 c 1.5,-2.4 -2.3,-10.4 -10.9,-10.7 -9,-0.7 -12.1,8.8 -13.7,12.9 l 12.3,-1 c 0,0 0.5,2 0,3.2 a 110,110 0 0 0 -12.3,1.6 l -0.5,6.2 h 6 l -0.4,2.8 c 0,0 -5.1,-0.4 -5.6,0 -0.5,0.3 -1,6.2 -1,6.2 0,0 -1,0.4 -2,0.4 -1,0 -2,-0.4 -2,-0.4 0,0 -0.4,-5.9 -0.9,-6.2 -0.5,-0.4 -5.6,0 -5.6,0 l -0.5,-2.8 H 56 l -0.5,-6.2 c 0,0 -6,-1.2 -12.3,-1.6 -0.4,-1.2 0,-3.1 0,-3.1 l 12.3,0.9 c -1.6,-4.1 -4.7,-13.6 -13.7,-13 -8.6,0.4 -12.4,8.4 -11,10.8 L 58,405.2 c 1.9,3.1 1.5,12.7 -5.7,16 -5,2.2 -13.4,2 -17.2,-1.4 -2.1,-1.4 -3.3,-4.2 -3.1,-6.5 0.2,-2.3 4,-11.6 -1.2,-16 5.3,1.7 5.8,1 10.5,-2.1 -6.6,8 -6.2,8.3 -5.2,13 4.7,-1.6 11.9,-1 11.9,1.2 0,2 -2,5.5 -4.8,4.1 -2.8,-1.4 2,-3 -1.4,-3 -3.3,0 -5.7,0.6 -5.7,3 0,2.4 3.3,5.2 8,5.2 4.7,0 10.5,-2.4 9.6,-11 -1,-8.7 -29,-57 -29,-62.8 0,-6 5.2,-13.5 19,-13.5 9,-0.7 12.3,8.7 15.5,11.9 z" />
        <path
           inkscape:connector-curvature="0"
           id="path8"
           d="m 59.1,319.4 c 3.3,3.2 6,12.6 15,12 13.8,0 19,-7.7 19,-13.6 0,-5.9 -28,-54 -29,-62.7 -1,-8.7 4.8,-11.1 9.5,-11.1 4.8,0 8.1,2.7 8.1,5.2 0,2.5 -2.4,3 -5.7,3 -3.3,0 1.4,-1.6 -1.4,-3 -2.8,-1.4 -4.8,2 -4.8,4.1 0,2.1 7.2,2.8 12,1.2 0.9,4.7 1.3,5 -5.3,13 4.8,-3 5.2,-3.8 10.5,-2 -5.3,-4.6 -1.4,-13.7 -1.2,-16 0.2,-2.3 -1,-5.2 -3.1,-6.6 -3.8,-3.4 -12.2,-3.6 -17.2,-1.4 -7.2,3.3 -7.6,12.8 -5.7,16 L 87,316 c 1.5,2.4 -2.3,10.4 -10.9,10.7 -9,0.7 -12.1,-8.8 -13.7,-12.9 l 12.3,1 c 0,0 0.5,-2 0,-3.2 A 110,110 0 0 1 62.4,310 l -0.5,-6.2 h 6 L 67.5,301 c 0,0 -5.1,0.4 -5.6,0 -0.5,-0.3 -1,-6.2 -1,-6.2 0,0 -1,-0.4 -2,-0.4 -1,0 -2,0.4 -2,0.4 0,0 -0.4,5.9 -0.9,6.2 -0.5,0.4 -5.6,0 -5.6,0 l -0.5,2.8 H 56 l -0.5,6.2 c 0,0 -6,1.2 -12.3,1.6 -0.4,1.2 0,3.1 0,3.1 l 12.3,-0.9 c -1.6,4.1 -4.7,13.6 -13.7,13 -8.6,-0.4 -12.4,-8.4 -11,-10.8 L 58,257.5 c 1.9,-3.2 1.5,-12.7 -5.7,-16 -5,-2.2 -13.4,-2 -17.2,1.4 -2.1,1.4 -3.3,4.2 -3.1,6.5 0.2,2.3 4,11.5 -1.2,16 5.3,-1.7 5.8,-1 10.5,2.1 -6.6,-8 -6.2,-8.3 -5.2,-13 4.7,1.6 11.9,1 11.9,-1.2 0,-2 -2,-5.5 -4.8,-4.1 -2.8,1.4 2,3 -1.4,3 -3.3,0 -5.7,-0.6 -5.7,-3 0,-2.4 3.3,-5.2 8,-5.2 4.7,0 10.5,2.4 9.6,11 -1,8.7 -29,57 -29,62.8 0,6 5.2,13.5 19,13.5 9,0.7 12.3,-8.7 15.5,-11.9 z" />
        <path
           inkscape:connector-curvature="0"
           id="path10"
           d="m 59.1,160.6 c 3.3,-3.2 6,-12.6 15,-12 13.8,0 19,7.7 19,13.6 0,5.9 -28,54 -29,62.8 -1,8.6 4.8,11 9.5,11 4.8,0 8.1,-2.7 8.1,-5.1 0,-2.4 -2.4,-3.2 -5.7,-3.2 -3.3,0 1.4,1.8 -1.4,3.2 -2.8,1.4 -4.8,-2.1 -4.8,-4.2 0,-2 7.2,-2.8 12,-1.2 0.9,-4.7 1.3,-5 -5.3,-13 4.8,3.1 5.2,3.8 10.5,2 -5.3,4.6 -1.4,13.8 -1.2,16 0.2,2.2 -1,5.2 -3.1,6.6 -3.8,3.5 -12.2,3.6 -17.2,1.4 -7.2,-3.3 -7.6,-12.8 -5.7,-16 L 87,164 c 1.5,-2.4 -2.3,-10.4 -10.9,-10.7 -9,-0.7 -12.1,8.8 -13.7,12.9 l 12.3,-1 c 0,0 0.5,2 0,3.2 -6.4,0.4 -12.3,1.6 -12.3,1.6 l -0.5,6.2 h 6 l -0.4,2.8 c 0,0 -5.1,-0.3 -5.6,0 -0.5,0.3 -1,6.3 -1,6.3 0,0 -1,0.3 -2,0.3 -1,0 -2,-0.3 -2,-0.3 0,0 -0.4,-6 -0.9,-6.3 -0.5,-0.3 -5.6,0 -5.6,0 l -0.5,-2.8 H 56 L 55.5,170 c 0,0 -6,-1.2 -12.3,-1.6 -0.4,-1.2 0,-3.1 0,-3.1 l 12.3,0.9 c -1.6,-4.1 -4.7,-13.6 -13.7,-13 -8.6,0.4 -12.4,8.4 -11,10.8 L 58,222.5 c 1.9,3.2 1.5,12.7 -5.7,16 -5,2.2 -13.4,2 -17.2,-1.4 -2.1,-1.4 -3.3,-4.2 -3.1,-6.5 0.2,-2.3 4,-11.5 -1.2,-16 5.3,1.7 5.8,1 10.5,-2.1 -6.6,8 -6.2,8.3 -5.2,13 4.7,-1.6 11.9,-0.9 11.9,1.2 0,2 -2,5.5 -4.8,4.1 -2.8,-1.3 2,-3 -1.4,-3 -3.3,0 -5.7,0.6 -5.7,3 0,2.4 3.3,5.2 8,5.2 4.7,0 10.5,-2.4 9.6,-11 -1,-8.7 -29,-56.9 -29,-62.8 0,-5.9 5.2,-13.5 19,-13.5 9,-0.7 12.3,8.7 15.5,12 z" />
        <path
           inkscape:connector-curvature="0"
           id="path12"
           d="m 59.1,136.7 c 3.3,3.2 6,12.7 15,12 13.8,0 19,-7.7 19,-13.6 0,-5.9 -28,-54 -29,-62.7 -1,-8.7 4.8,-11.1 9.5,-11.1 4.8,0 8.1,2.8 8.1,5.2 0,2.4 -2.4,3.1 -5.7,3.1 -3.3,0 1.4,-1.7 -1.4,-3.1 -2.8,-1.4 -4.8,2 -4.8,4.1 0,2.1 7.2,2.8 12,1.2 0.9,4.7 1.3,5 -5.3,13 4.8,-3 5.2,-3.8 10.5,-2 -5.3,-4.5 -1.4,-13.7 -1.2,-16 0.2,-2.3 -1,-5.2 -3.1,-6.6 -3.8,-3.4 -12.2,-3.6 -17.2,-1.3 -7.2,3.2 -7.6,12.8 -5.7,15.9 L 87,133.4 c 1.5,2.4 -2.3,10.4 -10.9,10.8 -9,0.6 -12.1,-8.8 -13.7,-13 l 12.3,1 c 0,0 0.5,-2 0,-3.2 a 111.5,111.5 0 0 1 -12.3,-1.5 l -0.5,-6.3 h 6 l -0.4,-2.8 c 0,0 -5.1,0.4 -5.6,0 -0.5,-0.3 -1,-6.2 -1,-6.2 0,0 -1,-0.4 -2,-0.4 -1,0 -2,0.4 -2,0.4 0,0 -0.4,5.9 -0.9,6.2 -0.5,0.4 -5.6,0 -5.6,0 l -0.5,2.8 H 56 l -0.5,6.3 c 0,0 -6,1.1 -12.3,1.5 -0.4,1.3 0,3.2 0,3.2 l 12.3,-1 c -1.6,4.2 -4.7,13.6 -13.7,13 -8.6,-0.4 -12.4,-8.4 -11,-10.8 L 58,74.8 c 1.9,-3.1 1.5,-12.7 -5.7,-16 -5,-2.2 -13.4,-2 -17.2,1.4 -2.1,1.4 -3.3,4.2 -3.1,6.5 0.2,2.3 4,11.6 -1.2,16 5.3,-1.7 5.8,-1 10.5,2.1 -6.6,-8 -6.2,-8.3 -5.2,-13 4.8,1.6 11.9,1 11.9,-1.2 0,-2 -2,-5.5 -4.8,-4.1 -2.8,1.4 2,3.1 -1.4,3.1 -3.3,0 -5.7,-0.7 -5.7,-3.1 0,-2.4 3.3,-5.2 8,-5.2 4.7,0 10.6,2.4 9.6,11 -1,8.7 -29,57 -29,62.8 0,6 5.2,13.6 19,13.6 9,0.7 12.3,-8.8 15.5,-12 z" />
        <path
           inkscape:connector-curvature="0"
           id="path14"
           d="m 60.2,13 c 3.3,-3.2 2.2,-8.5 11.3,-7.8 13.8,0 14.2,8.4 14.2,14.3 0,5.9 -20.7,14.1 -21.7,22.8 -1,8.7 4.8,11 9.6,11 4.7,0 8,-2.7 8,-5.1 0,-2.4 -2.2,-3.2 -5.6,-3.2 -3.4,0 1.5,1.7 -1.4,3 -2.9,1.3 -4.8,-2 -4.8,-4 0,-2.2 7.2,-2.9 12,-1.3 1,-4.7 1.4,-5 -5.3,-13 4.8,3.1 5.2,3.8 10.5,2 -5.3,4.6 -1.3,13.8 -1.2,16.1 0.1,2.3 -1,5.1 -3,6.5 C 78.8,58 70.5,58 65.5,55.8 58.2,52.6 57.8,43 59.7,39.8 L 80,19.3 C 81.4,16.9 82,10.1 73.4,9.8 64.4,9.1 61.2,21.4 59.6,25.5 57.5,21 55.1,8.6 46,9.3 c -8.6,0.3 -10.2,7 -8.8,9.5 l 20.7,21 c 2,3.2 1.6,12.8 -5.7,16 -5,2.3 -13.3,2.1 -17.1,-1.4 -2.2,-1.4 -3.4,-4.1 -3.2,-6.5 0.2,-2.4 4.1,-11.5 -1.1,-16 5.2,1.7 5.7,1 10.4,-2 -6.6,7.9 -6.1,8.2 -5.2,13 4.8,-1.6 12,-1 12,1.1 0,2.1 -2,5.6 -4.9,4.2 -2.8,-1.4 2,-3.1 -1.4,-3.1 -3.3,0 -5.7,0.7 -5.7,3 0,2.3 3.3,5.3 8.1,5.3 4.8,0 10.5,-2.4 9.5,-11.1 -1,-8.7 -22,-18.1 -22,-24 0,-6 1.4,-13.1 15.2,-13.1 9,-0.7 10.1,4.6 13.4,7.8 z" />
      </g>
      <g
         style="fill:#ffec2d"
         id="g32"
         transform="matrix(1.0673,0,0,1.0673,-194.7,8.3)">
        <rect
           id="rect18"
           ry="80.699997"
           rx="85.099998"
           y="104.5"
           x="425.89999"
           height="161.3"
           width="170.2" />
        <path
           inkscape:connector-curvature="0"
           id="path20"
           d="m 507,56.4 c -0.8,0 -4.6,26.8 -6,32.8 -1.4,13.5 18,13 14.8,-0.5 L 507,56.3 Z m 6.8,259.8 c 0.7,0 6.5,-26.5 8.4,-32.4 2.3,-13.3 -17.1,-14 -15,-0.4 z M 378.2,184.6 c 0,0.7 27.9,6.3 34.1,8.1 14,2.3 15,-16 0.6,-14 l -34.7,6 z m 271.7,3.2 c 0,-0.7 -28.2,-5.3 -34.5,-6.9 -14.1,-1.7 -14.2,16.6 0,14.1 z M 406.8,99.6 c -0.5,0.5 17.9,21.3 21.6,26.4 9.6,10 22.3,-4 9.6,-10.8 L 406.8,99.7 Z m 211.1,171 c 0.5,-0.5 -19.7,-19.7 -23.9,-24.4 -10.5,-9.2 -21.8,5.7 -8.6,11.5 l 32.5,13 z m -169,-200 c -0.6,0.3 8,26.1 9.4,32.2 4.8,12.7 22.2,4.4 13.2,-6.5 L 449,70.6 Z M 572,303 c 0.7,-0.3 -6,-26.6 -6.9,-32.7 -3.9,-13 -21.8,-6 -13.7,5.6 l 20.7,27 z M 602.3,88.6 c -0.6,-0.5 -22.8,16.6 -28.2,20 -10.7,9 3.8,21.2 11.2,9.3 z m -183,193.7 c 0.5,0.5 24,-15 29.6,-18.1 11.3,-8.2 -2.2,-21.4 -10.5,-10 l -19,28.1 z m -35,-144.1 c -0.3,0.6 24,14.7 29.3,18.4 12.5,6.5 19.8,-10.5 5.5,-13.2 z M 638,236.6 c 0.3,-0.6 -23,-16.3 -28,-20.3 -12,-7.4 -20.5,9.1 -6.4,12.7 z M 557.4,63.7 c -0.7,-0.2 -14.6,23.4 -18.3,28.5 a 7.8,7.8 0 0 0 14,4.7 z M 463.5,308 c 0.7,0.3 16.3,-22.4 20.3,-27.3 7.3,-11.6 -10.4,-19 -13.7,-5.6 z M 386,238.7 c 0.3,0.6 28,-6 34.5,-7 13.6,-3.8 6,-20.6 -6,-12.8 z M 638.1,136 c -0.2,-0.6 -28.3,4.1 -34.8,4.7 -14,2.9 -7.5,20.2 5,13.2 z" />
        <path
           inkscape:connector-curvature="0"
           id="path22"
           d="m 534.6,58.1 c -0.7,-0.1 -10.1,25.4 -12.9,31 -4.1,13 15,16.2 14.7,2.4 L 534.7,58 Z M 486.1,314 c 0.7,0.2 12,-24.7 15.2,-30.2 5,-12.6 -13.8,-17 -14.5,-3.3 L 486,314 Z M 476.4,60.6 c -0.7,0.2 1.9,27.2 1.9,33.4 1.9,13.3 20.6,8.7 14.4,-3.7 z m 68,251.9 c 0.7,-0.1 0,-27.2 0.5,-33.4 -0.9,-13.5 -20,-10.1 -14.6,2.7 l 14,30.7 z M 428.2,83 c -0.6,0.4 12.7,24.3 15.2,30 7.2,11.7 22.7,0.7 11.8,-8.6 z M 593,290.9 c 0.6,-0.4 -11,-25.2 -13,-31 -6.3,-12.1 -22.5,-2.1 -12.4,7.8 z M 393,116.6 c -0.4,0.6 21.1,18.4 25.6,23 11.1,8.4 21.4,-7.2 7.8,-12.1 z m 234.2,139.7 c 0.4,-0.6 -19.7,-19.8 -23.9,-24.6 -10.4,-9.1 -21.8,5.8 -8.6,11.6 z M 377.6,158.5 c -0.2,0.7 26.3,10.8 32.1,13.7 13.4,4.5 17.7,-13.4 3.1,-13.8 z M 645,216.3 c 0.3,-0.6 -25.4,-12.4 -31,-15.7 -13,-5.4 -18.7,12.2 -4.2,13.6 z M 376.7,210 c 0.1,0.6 28.7,0.2 35.2,0.7 14.2,-0.7 10.8,-18.8 -2.8,-13.9 z m 270.2,-45 c 0,-0.7 -28.6,-2.2 -35,-3.1 -14.3,-0.2 -12.2,18.1 1.7,14 l 33.3,-11 z m -245.7,98.4 c 0.4,0.6 26,-11.6 32,-13.9 12.4,-6.5 1,-21.4 -8.9,-11.3 z M 623.5,111.1 c -0.4,-0.6 -26.7,9.9 -33,11.8 -12.9,5.7 -2.6,21.3 8,11.9 z M 442.8,298.8 c 0.6,0.3 18.9,-20.5 23.5,-24.9 8.7,-10.7 -8,-20 -12.9,-7 z M 582.5,75 c -0.5,-0.4 -20.3,19.1 -25.2,23.2 -9.4,10.1 6.6,20.5 12.4,7.9 L 582.4,75 Z" />
        <g
           id="g30"
           transform="matrix(2.1824,0,0,2.0629,-405,-272.6)">
          <path
             inkscape:connector-curvature="0"
             id="path24"
             d="m 360.1,247.9 c 0.7,2.5 0.8,16.5 14.9,30 14,13.4 38,16.4 38,16.4 0,0 0.1,1.9 -1.6,2 -1.7,0.2 -9.9,-1.5 -14,-2.8 -4,-1.2 -7.6,-3.4 -8,-3.3 -0.5,0.2 -1.3,1.6 -2.5,1.4 -1.2,-0.2 -7,-6.2 -9.6,-7.8 a 80.6,80.6 0 0 1 -13.7,-15.3 c -2.8,-4.5 -3.5,-7.5 -4.4,-7.5 -0.9,0 -4.2,2.2 -4.2,2.2 0,0 -3,-4.5 -5.6,-11.7 -2.7,-7.2 -2.4,-11.4 -1.8,-11.7 0.7,-0.3 0.7,5.3 2.7,10.4 2,5.2 4.8,6.8 4.8,6.8 0,0 -1.8,-2.7 -3.2,-9.4 -1.4,-6.7 -2,-13.2 -1,-15.2 1,-2 1.9,-2.6 2,-2.5 0.2,0.2 -1.7,3.1 -0.4,10.8 1.3,7.7 4.8,14.2 5.6,13.9 0.8,-0.3 -0.5,-1.9 -1,-6.4 -0.5,-4.5 0.5,-7.3 1.6,-7.7 0.5,-0.4 1.3,5 1.4,7.4 z m -9.8,12.8 c -2.7,-2.5 -6.9,-11.2 -7.8,-10.8 -1,0.5 6.8,13 7,14 0.2,1.2 1.9,4.6 0.6,4.1 -1.3,-0.5 -10.6,-10.3 -9.5,-8.4 1.1,1.9 8.1,10.5 7.7,11 -0.4,0.5 -5.8,-4.8 -6,-4.1 -0.1,0.6 5.3,5.8 5.2,6.4 -0.1,0.6 -3.5,-3.3 -3.5,-2.5 0,0.8 3.5,4.7 3.5,5.3 0,0.6 -3,-2.8 -2,-1 0.9,2 3.5,3.7 3.4,4.3 -0.1,0.6 -2.2,-0.8 -2.2,-0.5 0,0.3 3.9,1.7 4.8,2.8 1,1.1 7.4,8.5 12.2,12.2 4.8,3.7 18.6,10.2 19.6,10.2 0.9,0 2.3,-2 2,-2.8 -0.3,-0.8 -13.8,-5.4 -17.5,-8.8 -3.8,-3.4 -13,-11.6 -13.8,-12 -0.7,-0.5 -2.8,-0.3 -2.8,-0.8 0,-0.5 2.7,0.3 2.5,0 -0.1,-0.3 -3.7,-1.9 -3.6,-2.2 0.2,-0.3 2.5,0.6 2.5,0.3 0,-0.3 -4.2,-2.6 -4,-3.1 0.1,-0.5 3.1,1.4 3.1,1 0,-0.2 -4,-3 -3.9,-3.5 0.1,-0.5 3.1,2.2 3,1.6 -0.1,-0.6 -2.4,-4 -2.4,-4.4 0,-0.5 3.6,3.4 4,2.6 0.2,-0.7 -1.3,-7.2 -1.2,-7.3 0.1,-0.1 2.7,1.4 3.1,0.5 0.5,-1 -1.8,-2.3 -4,-4.1 z m 46.1,49.2 c -1.9,0.3 -2.8,-0.4 -1.7,-2 1.5,0 5.5,-1.3 6.9,-1.9 1.4,-0.6 2.9,-1.4 4.1,-2.5 1.2,-1.3 2,0.7 1.3,1.8 -0.5,0.7 -2.8,2 -4.5,2.7 -2.5,0.8 -4.7,2 -6.1,1.9 z m 12.5,-5.1 c -1.3,-1.4 -0.2,-2.4 1.7,-3.5 2.8,-1.5 2,-3.6 5.6,-5.3 1.6,-1 24,-10 31.3,-14.8 7.3,-4.8 27.8,-20.3 33.3,-31 5.4,-10.6 2.8,-11.4 3.6,-11.8 0.7,-0.5 1.5,1.5 1.4,3.9 -0.2,2.3 -2,9.3 -1.4,10 0.6,0.7 8.2,-5.5 11.4,-13 3.2,-7.5 5.6,-15.3 7.1,-15.3 1.6,0 -2.6,12.8 -5.3,17.8 -2.6,5 -5.7,7.5 -5,8.6 0.8,1 8.6,-5.5 11.3,-10.3 2.6,-4.9 5.1,-9.2 5.6,-8.3 a 34,34 0 0 1 -6.7,16.1 c -4.2,4.8 -9.2,8.3 -8.4,9 0.7,0.8 6.4,1.6 12.3,-2.4 6,-4.1 6.6,-10 7.3,-9.7 0.8,0.3 -0.7,8.4 -6.4,13.4 -5.7,5 -13.2,5.5 -13,6.6 0.4,1 16.3,-4.6 16,-3.3 -0.3,1.2 -20.6,9.2 -20.8,10 0,0.6 3.5,0.8 9,-0.5 5.4,-1.2 10.6,-5.5 11.3,-4.5 0.2,1.4 -3.9,4.8 -10.1,6.4 -6.3,1.6 -9.4,3.7 -9.6,4.2 -0.1,0.5 11.2,-1.4 11.2,-0.8 0,0.6 -14.8,3.5 -14.9,4.3 -0.2,0.7 14,-2.9 13.8,-2 -0.4,0.7 -19.3,6.3 -19.1,6.6 0.1,0.4 15.8,-3.4 15.5,-2.8 -0.4,0.7 -26.4,8 -26.6,8.5 -0.2,0.4 23,-5.2 22.8,-4.7 -0.2,0.5 -12,3.4 -12,3.7 0,0.3 9.5,-1.5 9.3,-1 -0.1,0.4 -24,6.5 -24.5,7.4 -0.5,1 12.4,-2.5 12.2,-0.7 -0.2,1.8 -27.7,11 -27.8,9.3 -0.2,-1.7 16.7,-6 16.6,-6.5 -0.2,-0.5 -9.7,1 -9.9,0.1 -0.1,-1 6.3,-3 5.8,-3.4 -0.5,-0.5 -5.3,1.4 -4.9,0.3 0.5,-1.1 9.6,-5.3 9.4,-5.6 -0.1,-0.3 -3.3,1 -3,0 0.4,-1.1 19.7,-6.7 19.4,-7.4 -0.3,-0.6 -8.9,1.4 -9.7,1.6 -0.3,-0.6 12,-5.2 11.8,-6 -0.4,-0.7 -6.6,2.7 -7,1.8 -0.2,-1 10.9,-5.3 10.2,-6 -0.7,-0.7 -5.7,1.8 -6.4,1.1 -0.7,-0.7 10.5,-8.4 8.8,-8.6 -1.7,-0.1 -3.8,2.4 -4,0.8 0.2,-2 8.7,-5.3 6.8,-6.9 -3,-0.9 -13.1,0.7 -17.3,3.2 -4.2,2.5 -18.2,16.4 -21.6,18.6 -3.4,2.1 -15,7 -17.2,8 -3.4,1.2 -4,3 -7.5,4.8 -6.3,1.7 -6.2,3.6 -9.2,4.7 -1.1,0.3 -12.4,5.7 -12.5,5.3 z m -15.8,7 c -1.9,1 -3.6,3.4 -2.5,4.4 0.6,1.2 2.5,-2.7 4,-2.5 l 8,0.4 c 4.3,0.3 6.4,-0.9 8.8,-0.7 2.4,0.2 7.7,-1.3 10.2,-1.3 2.5,0 3,0.3 3.2,-0.8 0.3,-1 -7.8,-0.3 -11.4,-0.4 -3.6,-0.2 -8.1,0.7 -10.8,0.7 -2.5,-0.1 -6.8,-0.9 -9.5,0.2 z" />
          <rect
             id="rect26"
             ry="1.5"
             rx="1.7"
             y="309.10001"
             x="401.70001"
             height="3"
             width="3.4000001" />
          <path
             inkscape:connector-curvature="0"
             id="path28"
             d="m 445,307.7 c 1.7,-0.3 6.3,1.3 9.5,2 5.8,2.3 16.6,1.2 16.6,2.3 0,1.1 -0.7,2.4 -3.2,2.6 -2.5,0.2 -8.8,-1 -8.6,-1 0.2,0 5,2.3 3.6,2.9 -1.4,0.6 -5.5,-1.3 -6.2,-0.8 -0.7,0.5 3.8,1.4 3,1.7 -0.6,0.3 -3.7,-0.4 -4.7,-0.3 -1,0.2 0.8,1.3 -0.4,1.7 -1.2,0.5 -3.2,-0.6 -4,-0.3 -0.9,0.3 1.8,2 0.6,2.2 -1.2,0.2 -4,-0.8 -5.6,-1 -1.6,0 1.5,1.6 0.5,1.8 -1,0.1 -3.8,-1.3 -4.5,-1.3 -0.7,0 0,2 -1,2 -1,0 -2.2,-1.7 -2.8,-1.7 -0.6,0 0,2 -1,2 -1,0 -1.4,-2.1 -2.2,-2 -1,0.2 0,2.7 -1.4,2.5 -1.3,-0.1 -1.5,-2.6 -2.6,-2.5 -1,0.2 0.2,2.5 -0.8,2.5 -1,0 -1.2,-2.3 -2.2,-2.5 -1,-0.1 -0.6,2.2 -1.2,2.2 -0.6,0 -1.2,-2.2 -1.6,-2.2 -0.3,0 0,2.2 -1.2,2 -1.2,-0.2 -1.2,-2.4 -1.5,-2.3 -0.4,0.2 -0.4,1.8 -1.2,1.8 -0.8,0 -0.9,-1.6 -1.2,-1.4 -0.4,0.1 -1.6,2.1 -2.4,1.8 -0.9,-0.3 0.2,-1.9 -0.2,-1.9 -0.4,0 -1.4,1.1 -2,1 -0.6,-0.1 0,-1.4 -0.2,-1.4 -0.2,0 -1.7,0.8 -2.4,0.8 -0.7,0 -2.6,1 -3.1,0.1 -0.5,-1 1.3,-1 1.7,-1.9 0.3,-0.9 -1,-3.6 0.4,-4.5 1.3,-1 5.6,1.3 12,-0.3 11.6,-3.1 20.6,-6.7 21.5,-6.6 z" />
        </g>
      </g>
    </g>
  </g>
</svg>
