<?xml version="1.0" encoding="UTF-8" standalone="no"?>
<svg
   xmlns:dc="http://purl.org/dc/elements/1.1/"
   xmlns:cc="http://creativecommons.org/ns#"
   xmlns:rdf="http://www.w3.org/1999/02/22-rdf-syntax-ns#"
   xmlns:svg="http://www.w3.org/2000/svg"
   xmlns="http://www.w3.org/2000/svg"
   xmlns:sodipodi="http://sodipodi.sourceforge.net/DTD/sodipodi-0.dtd"
   xmlns:inkscape="http://www.inkscape.org/namespaces/inkscape"
   id="flag-icons-um"
   viewBox="0 0 20 20"
   version="1.1"
   sodipodi:docname="um_small.svg"
   width="20"
   height="20"
   inkscape:version="0.92.3 (2405546, 2018-03-11)">
  <metadata
     id="metadata22">
    <rdf:RDF>
      <cc:Work
         rdf:about="">
        <dc:format>image/svg+xml</dc:format>
        <dc:type
           rdf:resource="http://purl.org/dc/dcmitype/StillImage" />
        <dc:title></dc:title>
      </cc:Work>
    </rdf:RDF>
  </metadata>
  <sodipodi:namedview
     pagecolor="#ffffff"
     bordercolor="#666666"
     borderopacity="1"
     objecttolerance="10"
     gridtolerance="10"
     guidetolerance="10"
     inkscape:pageopacity="0"
     inkscape:pageshadow="2"
     inkscape:window-width="1920"
     inkscape:window-height="1025"
     id="namedview20"
     showgrid="false"
     inkscape:zoom="0.49166667"
     inkscape:cx="324.0678"
     inkscape:cy="240"
     inkscape:window-x="0"
     inkscape:window-y="0"
     inkscape:window-maximized="1"
     inkscape:current-layer="flag-icons-um" />
  <defs
     id="defs5">
    <clipPath
       id="um-a">
      <path
         d="M 0,0 H 682.7 V 512 H 0 Z"
         id="path2"
         inkscape:connector-curvature="0"
         style="fill-opacity:0.7" />
    </clipPath>
  </defs>
  <g
     id="g30"
     transform="matrix(0.03124847,0,0,0.03124847,1.3426562e-6,16.874663)">
    <g
       style="fill-rule:evenodd"
       id="g17"
       transform="matrix(0.9375,0,0,0.9375,0,-460)"
       clip-path="url(#um-a)">
      <g
         style="stroke-width:1.00000003pt"
         id="g11">
        <path
           style="fill:#bd3d44"
           inkscape:connector-curvature="0"
           id="path7"
           d="M 0,0 H 972.8 V 39.4 H 0 Z m 0,78.8 h 972.8 v 39.4 H 0 Z m 0,78.7 H 972.8 V 197 H 0 Z m 0,78.8 h 972.8 v 39.4 H 0 Z m 0,78.8 h 972.8 v 39.4 H 0 Z m 0,78.7 h 972.8 v 39.4 H 0 Z m 0,78.8 H 972.8 V 512 H 0 Z" />
        <path
           style="fill:#ffffff"
           inkscape:connector-curvature="0"
           id="path9"
           d="M 0,39.4 H 972.8 V 78.8 H 0 Z m 0,78.8 h 972.8 v 39.3 H 0 Z m 0,78.7 h 972.8 v 39.4 H 0 Z m 0,78.8 h 972.8 v 39.4 H 0 Z m 0,78.8 h 972.8 v 39.4 H 0 Z m 0,78.7 h 972.8 v 39.4 H 0 Z" />
      </g>
      <path
         style="fill:#192f5d"
         inkscape:connector-curvature="0"
         id="path13"
         d="M 0,0 H 389.1 V 275.7 H 0 Z" />
      <path
         style="fill:#ffffff"
         inkscape:connector-curvature="0"
         id="path15"
         d="M 32.4,11.8 36,22.7 h 11.4 l -9.2,6.7 3.5,11 -9.3,-6.8 -9.2,6.7 3.5,-10.9 -9.3,-6.7 H 29 Z m 64.9,0 3.5,10.9 h 11.5 l -9.3,6.7 3.5,11 -9.2,-6.8 -9.3,6.7 3.5,-10.9 -9.2,-6.7 h 11.4 z m 64.8,0 3.6,10.9 H 177 l -9.2,6.7 3.5,11 -9.3,-6.8 -9.2,6.7 3.5,-10.9 -9.3,-6.7 h 11.5 z m 64.9,0 3.5,10.9 H 242 l -9.3,6.7 3.6,11 -9.3,-6.8 -9.3,6.7 3.6,-10.9 -9.3,-6.7 h 11.4 z m 64.8,0 3.6,10.9 h 11.4 l -9.2,6.7 3.5,11 -9.3,-6.8 -9.2,6.7 3.5,-10.9 -9.2,-6.7 h 11.4 z m 64.9,0 3.5,10.9 h 11.5 l -9.3,6.7 3.6,11 -9.3,-6.8 -9.3,6.7 3.6,-10.9 -9.3,-6.7 h 11.5 z M 64.9,39.4 68.4,50.3 H 79.9 L 70.6,57 74,67.9 65,61.2 55.7,67.9 59,57 50,50.3 h 11.4 z m 64.8,0 3.6,10.9 h 11.4 l -9.3,6.7 3.6,10.9 -9.3,-6.7 -9.3,6.7 3.6,-10.9 -9.3,-6.7 h 11.5 z m 64.9,0 3.5,10.9 h 11.5 l -9.3,6.7 3.5,10.9 -9.2,-6.7 -9.3,6.7 3.5,-10.9 -9.2,-6.7 H 191 Z m 64.8,0 3.6,10.9 h 11.4 l -9.3,6.7 3.6,10.9 -9.3,-6.7 -9.2,6.7 3.5,-10.9 -9.3,-6.7 H 256 Z m 64.9,0 3.5,10.9 h 11.5 l -9.3,6.7 3.5,10.9 -9.2,-6.7 -9.3,6.7 3.5,-10.9 -9.2,-6.7 h 11.4 z M 32.4,66.9 36,78 h 11.4 l -9.2,6.7 3.5,10.9 -9.3,-6.8 -9.2,6.8 3.5,-11 -9.3,-6.7 H 29 Z m 64.9,0 3.5,11 h 11.5 l -9.3,6.7 3.5,10.9 -9.2,-6.8 -9.3,6.8 3.5,-11 -9.2,-6.7 h 11.4 z m 64.8,0 3.6,11 H 177 l -9.2,6.7 3.5,10.9 -9.3,-6.8 -9.2,6.8 3.5,-11 -9.3,-6.7 h 11.5 z m 64.9,0 3.5,11 H 242 l -9.3,6.7 3.6,10.9 -9.3,-6.8 -9.3,6.8 3.6,-11 -9.3,-6.7 h 11.4 z m 64.8,0 3.6,11 h 11.4 l -9.2,6.7 3.5,10.9 -9.3,-6.8 -9.2,6.8 3.5,-11 -9.2,-6.7 h 11.4 z m 64.9,0 3.5,11 h 11.5 l -9.3,6.7 3.6,10.9 -9.3,-6.8 -9.3,6.8 3.6,-11 -9.3,-6.7 h 11.5 z m -291.8,27.6 3.5,10.9 h 11.5 l -9.3,6.7 3.5,11 -9.2,-6.8 -9.3,6.7 3.5,-10.9 -9.2,-6.7 h 11.4 z m 64.8,0 3.6,10.9 h 11.4 l -9.3,6.7 3.6,11 -9.3,-6.8 -9.3,6.7 3.6,-10.9 -9.3,-6.7 h 11.5 z m 64.9,0 3.5,10.9 h 11.5 l -9.3,6.7 3.5,11 -9.2,-6.8 -9.3,6.7 3.5,-10.9 -9.2,-6.7 H 191 Z m 64.8,0 3.6,10.9 h 11.4 l -9.2,6.7 3.5,11 -9.3,-6.8 -9.2,6.7 3.5,-10.9 -9.3,-6.7 H 256 Z m 64.9,0 3.5,10.9 h 11.5 l -9.3,6.7 3.5,11 -9.2,-6.8 -9.3,6.7 3.5,-10.9 -9.2,-6.7 h 11.4 z M 32.4,122.1 36,133 h 11.4 l -9.2,6.7 3.5,11 -9.3,-6.8 -9.2,6.7 3.5,-10.9 -9.3,-6.7 H 29 Z m 64.9,0 3.5,10.9 h 11.5 l -9.3,6.7 3.5,10.9 -9.2,-6.7 -9.3,6.7 3.5,-10.9 -9.2,-6.7 h 11.4 z m 64.8,0 3.6,10.9 H 177 l -9.2,6.7 3.5,11 -9.3,-6.8 -9.2,6.7 3.5,-10.9 -9.3,-6.7 h 11.5 z m 64.9,0 3.5,10.9 H 242 l -9.3,6.7 3.6,11 -9.3,-6.8 -9.3,6.7 3.6,-10.9 -9.3,-6.7 h 11.4 z m 64.8,0 3.6,10.9 h 11.4 l -9.2,6.7 3.5,11 -9.3,-6.8 -9.2,6.7 3.5,-10.9 -9.2,-6.7 h 11.4 z m 64.9,0 3.5,10.9 h 11.5 l -9.3,6.7 3.6,11 -9.3,-6.8 -9.3,6.7 3.6,-10.9 -9.3,-6.7 h 11.5 z m -291.8,27.6 3.5,10.9 h 11.5 l -9.3,6.7 3.5,10.9 -9.2,-6.8 -9.3,6.8 3.5,-11 -9.2,-6.7 h 11.4 z m 64.8,0 3.6,10.9 h 11.4 l -9.3,6.7 3.6,10.9 -9.3,-6.8 -9.3,6.8 3.6,-11 -9.3,-6.7 h 11.5 z m 64.9,0 3.5,10.9 h 11.5 l -9.3,6.7 3.5,10.9 -9.2,-6.8 -9.3,6.8 3.5,-11 -9.2,-6.7 H 191 Z m 64.8,0 3.6,10.9 h 11.4 l -9.2,6.7 3.5,10.9 -9.3,-6.8 -9.2,6.8 3.5,-11 -9.3,-6.7 H 256 Z m 64.9,0 3.5,10.9 h 11.5 l -9.3,6.7 3.5,10.9 -9.2,-6.8 -9.3,6.8 3.5,-11 -9.2,-6.7 h 11.4 z m -291.9,27.5 3.6,11 h 11.4 l -9.2,6.7 3.5,10.8 -9.3,-6.7 -9.2,6.7 3.5,-10.9 -9.3,-6.7 H 29 Z m 64.9,0 3.5,11 h 11.5 l -9.3,6.7 3.6,10.8 -9.3,-6.7 -9.3,6.7 3.6,-10.9 -9.3,-6.7 h 11.4 z m 64.8,0 3.6,11 H 177 l -9.2,6.7 3.5,10.8 -9.3,-6.7 -9.2,6.7 3.5,-10.9 -9.3,-6.7 h 11.5 z m 64.9,0 3.5,11 H 242 l -9.3,6.7 3.6,10.8 -9.3,-6.7 -9.3,6.7 3.6,-10.9 -9.3,-6.7 h 11.4 z m 64.8,0 3.6,11 h 11.4 l -9.2,6.7 3.5,10.8 -9.3,-6.7 -9.2,6.7 3.5,-10.9 -9.2,-6.7 h 11.4 z m 64.9,0 3.5,11 h 11.5 l -9.3,6.7 3.6,10.8 -9.3,-6.7 -9.3,6.7 3.6,-10.9 -9.3,-6.7 h 11.5 z m -291.8,27.6 3.5,10.9 h 11.5 l -9.3,6.7 3.5,11 -9.2,-6.8 -9.3,6.7 3.5,-10.9 -9.2,-6.7 h 11.4 z m 64.8,0 3.6,10.9 h 11.4 l -9.3,6.7 3.6,11 -9.3,-6.8 -9.3,6.7 3.6,-10.9 -9.3,-6.7 h 11.5 z m 64.9,0 3.5,10.9 h 11.5 l -9.3,6.7 3.5,11 -9.2,-6.8 -9.3,6.7 3.5,-10.9 -9.2,-6.7 H 191 Z m 64.8,0 3.6,10.9 h 11.4 l -9.2,6.7 3.5,11 -9.3,-6.8 -9.2,6.7 3.5,-10.9 -9.3,-6.7 H 256 Z m 64.9,0 3.5,10.9 h 11.5 l -9.3,6.7 3.5,11 -9.2,-6.8 -9.3,6.7 3.5,-10.9 -9.2,-6.7 h 11.4 z M 32.4,232.4 36,243.3 h 11.4 l -9.2,6.7 3.5,10.9 -9.3,-6.7 -9.2,6.7 3.5,-11 -9.3,-6.7 H 29 Z m 64.9,0 3.5,10.9 h 11.5 l -9.3,6.7 3.6,10.9 -9.3,-6.7 -9.3,6.7 3.6,-11 -9.3,-6.7 h 11.4 z m 64.8,0 3.6,10.9 H 177 l -9,6.7 3.5,10.9 -9.3,-6.7 -9.2,6.7 3.5,-11 -9.3,-6.7 h 11.5 z m 64.9,0 3.5,10.9 H 242 l -9.3,6.7 3.6,10.9 -9.3,-6.7 -9.3,6.7 3.6,-11 -9.3,-6.7 h 11.4 z m 64.8,0 3.6,10.9 h 11.4 l -9.2,6.7 3.5,10.9 -9.3,-6.7 -9.2,6.7 3.5,-11 -9.2,-6.7 h 11.4 z m 64.9,0 3.5,10.9 h 11.5 l -9.3,6.7 3.6,10.9 -9.3,-6.7 -9.3,6.7 3.6,-11 -9.3,-6.7 h 11.5 z" />
    </g>
  </g>
</svg>
